<?xml version="1.0" standalone="no"?>
<!DOCTYPE svg PUBLIC "-//W3C//DTD SVG 20010904//EN"
 "http://www.w3.org/TR/2001/REC-SVG-20010904/DTD/svg10.dtd">
<svg version="1.0" xmlns="http://www.w3.org/2000/svg"
 width="700.000000pt" height="700.000000pt" viewBox="0 0 700.000000 700.000000"
 preserveAspectRatio="xMidYMid meet">
<metadata>
Created by potrace 1.11, written by Peter Selinger 2001-2013
</metadata>
<g transform="translate(0.000000,700.000000) scale(0.100000,-0.100000)"
fill="#000000" stroke="none">
<path d="M3367 6994 c-1 -1 -49 -5 -107 -8 -112 -8 -164 -12 -214 -20 -17 -3
-53 -8 -81 -12 -27 -3 -59 -8 -70 -10 -11 -2 -33 -7 -50 -10 -342 -60 -749
-210 -1070 -392 -141 -80 -448 -290 -485 -331 -3 -3 -36 -33 -75 -65 -364
-309 -698 -751 -896 -1188 -98 -216 -202 -518 -225 -653 -2 -16 -7 -38 -10
-47 -6 -19 -10 -40 -25 -123 -5 -33 -12 -71 -15 -85 -8 -42 -22 -161 -32 -265
-9 -100 -8 -498 1 -585 4 -36 9 -92 13 -125 42 -430 225 -967 465 -1368 55
-92 184 -284 198 -297 4 -3 26 -32 50 -64 138 -186 400 -448 606 -607 39 -29
72 -56 75 -59 3 -3 19 -15 36 -27 359 -251 694 -412 1088 -524 300 -85 529
-118 863 -126 l232 -6 -270 269 c-148 148 -271 270 -273 272 -2 2 -19 5 -38 8
-368 50 -792 206 -1129 416 -86 54 -304 209 -319 227 -3 3 -39 35 -80 71 -391
340 -701 807 -863 1305 -38 115 -92 326 -102 398 -3 23 -8 49 -10 57 -2 8 -7
40 -10 70 -3 30 -8 66 -10 80 -22 129 -22 462 1 655 3 22 7 60 10 85 25 218
128 578 226 790 11 25 31 68 44 96 86 189 254 442 439 663 52 62 240 245 325
317 377 316 870 557 1308 639 13 2 31 6 40 9 29 9 234 37 312 44 156 12 603 3
630 -13 3 -2 33 -6 67 -9 34 -3 68 -8 75 -11 7 -2 29 -7 48 -10 43 -6 170 -37
265 -63 248 -69 559 -210 786 -357 795 -516 1292 -1354 1365 -2300 6 -78 6
-355 0 -428 -76 -908 -538 -1714 -1281 -2232 -109 -76 -290 -183 -385 -227
-36 -16 -92 -42 -125 -58 -33 -15 -96 -40 -140 -55 -44 -16 -85 -32 -91 -37
-11 -8 -409 385 -2167 2140 -252 251 -479 484 -504 517 -214 283 -234 681 -49
987 133 219 352 374 601 423 70 14 208 17 270 5 79 -15 210 -79 297 -147 136
-104 217 -195 503 -570 43 -57 79 -103 80 -103 2 0 43 53 91 118 77 101 117
152 239 302 49 60 225 231 277 269 149 107 268 146 423 138 369 -20 676 -254
803 -612 11 -31 25 -83 27 -100 1 -5 5 -37 10 -69 28 -209 -24 -426 -146 -612
-18 -27 -328 -346 -691 -709 -362 -363 -658 -663 -658 -666 0 -3 79 -85 177
-182 140 -140 179 -174 192 -167 9 5 316 310 682 677 695 697 710 714 809 898
64 119 129 319 147 455 10 73 9 330 -1 400 -55 385 -284 746 -613 966 -164
110 -375 195 -543 219 -25 4 -63 10 -85 14 -70 13 -275 5 -365 -13 -244 -52
-465 -176 -684 -387 l-91 -87 -95 91 c-178 169 -349 278 -530 339 -155 53
-221 63 -390 61 -298 -3 -585 -104 -828 -289 -82 -62 -225 -206 -262 -263 -8
-13 -23 -32 -33 -44 -10 -12 -32 -46 -49 -77 -18 -30 -35 -57 -38 -60 -26 -20
-129 -308 -144 -401 -3 -19 -8 -50 -12 -69 -10 -57 -13 -335 -4 -377 5 -21 11
-56 13 -78 8 -60 45 -190 78 -273 67 -169 192 -358 316 -477 21 -20 655 -652
1408 -1404 l1370 -1369 124 34 c120 32 304 92 366 119 17 7 68 29 115 49 499
207 1006 600 1371 1061 83 105 215 302 272 405 10 19 29 51 40 70 21 34 127
247 127 255 0 2 11 28 24 57 30 67 108 281 134 373 28 96 79 309 87 370 4 28
9 59 12 70 2 11 6 38 9 60 2 22 7 58 10 80 19 152 25 522 11 700 -27 343 -109
691 -244 1030 -42 105 -142 316 -178 375 -12 19 -46 76 -76 125 -93 157 -198
301 -338 465 -108 126 -405 413 -460 444 -9 5 -18 12 -21 15 -20 24 -241 181
-335 238 -124 76 -367 201 -470 243 -11 4 -36 15 -55 23 -199 87 -600 192
-846 222 -27 3 -62 8 -79 10 -99 12 -508 27 -518 19z"/>
</g>
</svg>
