<svg xmlns="http://www.w3.org/2000/svg" class="icons-sprite">
	<symbol id="android" viewBox="0 0 413.137 413.137">
		<path d="M311.358 136.395H101.779a8.44 8.44 0 0 0-8.441 8.441v175.749a8.44 8.44 0 0 0 8.441 8.441h37.363v59.228c0 13.742 11.14 24.883 24.883 24.883 13.742 0 24.883-11.14 24.883-24.883v-59.228h34.803v59.228c0 13.742 11.14 24.883 24.883 24.883 13.742 0 24.883-11.14 24.883-24.883v-59.228h37.882a8.44 8.44 0 0 0 8.441-8.441V144.836a8.442 8.442 0 0 0-8.442-8.441zm-253.502-.041c-13.742 0-24.883 11.14-24.883 24.883v101.065c0 13.742 11.14 24.883 24.883 24.883 13.742 0 24.883-11.14 24.883-24.883V161.237c-.001-13.742-11.141-24.883-24.883-24.883zm297.425 0c-13.742 0-24.883 11.14-24.883 24.883v101.065c0 13.742 11.14 24.883 24.883 24.883 13.742 0 24.883-11.14 24.883-24.883V161.237c0-13.742-11.14-24.883-24.883-24.883zm-251.806-12.285h205.692c5.366 0 9.368-4.943 8.266-10.195-6.804-32.428-27.45-59.756-55.465-75.543l17.584-31.727a4.447 4.447 0 0 0-7.78-4.311l-17.717 31.966c-14.511-6.734-30.683-10.495-47.734-10.495-17.052 0-33.224 3.761-47.735 10.495L140.869 2.292a4.447 4.447 0 0 0-7.779 4.311l17.584 31.727c-28.015 15.788-48.661 43.115-55.465 75.544-1.103 5.252 2.899 10.195 8.266 10.195zm164.222-47.283c0 5.282-4.282 9.565-9.565 9.565-5.282 0-9.565-4.282-9.565-9.565 0-5.282 4.282-9.565 9.565-9.565 5.283 0 9.565 4.283 9.565 9.565zm-113.189-9.565c5.282 0 9.565 4.282 9.565 9.565 0 5.282-4.282 9.565-9.565 9.565-5.282 0-9.565-4.282-9.565-9.565 0-5.282 4.282-9.565 9.565-9.565z"/>
	</symbol>
	<symbol id="apple" viewBox="0 0 291.538 291.538">
		<path d="M188.373 44.308c10.97-11.744 18.39-28.049 16.359-44.308-15.804.564-34.958 9.277-46.302 21.02-10.169 10.396-19.072 27.011-16.696 42.951 17.635 1.193 35.651-7.938 46.639-19.663zm33.657 112.285c-.337-36.451 28.859-53.958 30.152-54.804-16.414-24.753-41.977-28.14-51.081-28.522-21.767-2.285-42.442 13.182-53.493 13.182-11.006 0-28.03-12.882-46.083-12.536-23.733.391-45.601 14.211-57.79 36.114-24.654 44.063-6.319 109.336 17.705 145.077 11.744 17.497 25.727 37.125 44.089 36.415 17.725-.71 24.407-11.789 45.792-11.789 21.394 0 27.384 11.789 46.101 11.434 19.045-.355 31.098-17.834 42.742-35.386 13.473-20.292 19.027-39.938 19.345-40.93-.409-.237-37.088-14.666-37.479-58.255z"/>
	</symbol>
	<symbol id="cart" viewBox="0 0 512 512">
		<path d="M494.347 114.764a8.823 8.823 0 0 0-8.828 8.828v70.621h-35.31v-76.138c0-4.879-3.948-8.828-8.828-8.828s-8.828 3.948-8.828 8.828v76.138h-37.336v-82.388c0-4.879-3.948-8.828-8.828-8.828s-8.828 3.948-8.828 8.828v82.388h-37.698v-89.749c0-4.879-3.948-8.828-8.828-8.828s-8.828 3.948-8.828 8.828v89.75h-35.715l-4.018-97.034c-.199-4.879-4.552-8.629-9.181-8.457-4.871.199-8.664 4.31-8.457 9.181l3.988 96.31h-37.243L218.045 87.635c-.621-4.836-5.009-8.233-9.87-7.647-4.836.612-8.258 5.035-7.647 9.87l13.256 104.353h-41.315L147.95 80.531c-1.035-4.767-5.732-7.81-10.492-6.767-4.767 1.026-7.794 5.725-6.767 10.492l23.715 109.957h-41.388L64.483 34.048a26.469 26.469 0 0 0-20.156-18.293L10.56 9.005C5.732 7.996 1.12 11.151.172 15.927a8.827 8.827 0 0 0 6.922 10.388l33.759 6.75a8.848 8.848 0 0 1 6.733 6.103l84.141 277.676-46.029 85.498c-4.466 8.285-4.25 18.06.569 26.139 4.828 8.077 13.327 12.905 22.741 12.905H476.69c4.879 0 8.828-3.948 8.828-8.828s-3.948-8.828-8.828-8.828H109.01c-4.526 0-6.81-3.009-7.577-4.301-.776-1.293-2.336-4.733-.19-8.715l45.483-84.475 331.94-24.897c13.741-1.026 24.509-12.629 24.509-26.406V123.591a8.823 8.823 0 0 0-8.828-8.827zM147.639 308.463l-29.271-96.595h39.846l20.333 94.277-30.908 2.318zm48.683-3.651l-20.046-92.944h39.75l11.509 90.603-31.213 2.341zm48.845-3.662l-11.341-89.281h35.73l3.609 87.183-27.998 2.098zm77.042-5.778l-31.43 2.357-3.555-85.862h34.985v83.505zm55.353-4.15l-37.698 2.828v-82.182h37.698v79.354zm54.992-4.125l-37.336 2.801v-78.031h37.336v75.23zm52.965-12.16c0 4.595-3.586 8.457-8.172 8.802l-27.138 2.035v-73.906h35.31v63.069z"/><circle cx="132.414" cy="476.7" r="26.483"/><circle cx="450.208" cy="476.7" r="26.483"/><path d="M132.415 485.523a10.767 10.767 0 0 1-10.559-8.657l-7.096-35.481h35.31l-7.096 35.481a10.77 10.77 0 0 1-10.559 8.657zm317.794 0a10.767 10.767 0 0 1-10.559-8.657l-7.096-35.481h35.31l-7.096 35.481a10.77 10.77 0 0 1-10.559 8.657zm54.034-370.69L72.96 62.023l5.596 18.464 423.55 51.863c.362.052.724.07 1.078.07 4.396 0 8.207-3.276 8.75-7.758.593-4.838-2.846-9.243-7.691-9.829z"/>
	</symbol>
	<symbol id="check" viewBox="0 0 456.556 456.556">
		<path d="M228.278 456.556C102.403 456.556 0 354.153 0 228.278S102.403 0 228.278 0c42.641 0 84.233 11.834 120.287 34.228 6.301 3.91 8.232 12.19 4.322 18.492-3.917 6.301-12.197 8.246-18.492 4.322-31.794-19.751-68.49-30.185-106.117-30.185-111.065 0-201.422 90.36-201.422 201.422S117.213 429.7 228.278 429.7c111.062 0 201.422-90.36 201.422-201.422 0-22.324-3.623-44.243-10.77-65.147-2.399-7.015 1.35-14.652 8.365-17.051 7.029-2.385 14.652 1.35 17.051 8.365 8.099 23.709 12.211 48.551 12.211 73.834-.001 125.874-102.404 228.277-228.279 228.277z"/><path d="M228.278 305.727c-3.406 0-6.7-1.294-9.193-3.644L111.66 201.17c-5.406-5.077-5.672-13.575-.594-18.981 5.078-5.399 13.575-5.679 18.981-.587l97.092 91.206L403.564 63.371c4.77-5.672 13.246-6.399 18.918-1.616 5.672 4.777 6.399 13.246 1.616 18.918L238.545 300.951a13.434 13.434 0 0 1-9.484 4.756c-.258.013-.524.02-.783.02z"/>
	</symbol>
	<symbol id="cross" viewBox="0 0 31.112 31.112">
		<path d="M31.112 1.414L29.698 0 15.556 14.142 1.414 0 0 1.414l14.142 14.142L0 29.698l1.414 1.414L15.556 16.97l14.142 14.142 1.414-1.414L16.97 15.556z"/>
	</symbol>
	<symbol id="exclame" viewBox="0 0 612.816 612.816">
		<path d="M306.408 0C137.368 0 .371 136.997.371 306.037s136.997 306.779 306.037 306.779 306.037-137.813 306.037-306.037C612.445 137.739 475.448 0 306.408 0zm0 583.147c-152.203 0-276.368-124.165-276.368-276.368S154.205 29.595 306.408 29.595 582.776 153.76 582.776 306.779 458.611 583.147 306.408 583.147zm15.205-151.387c0 8.827-7.195 16.021-16.021 16.021-8.827 0-16.021-7.195-16.021-16.021 0-8.827 7.195-16.021 16.021-16.021s16.021 7.195 16.021 16.021zm-31.226-78.549v-180.24c0-8.011 6.379-14.39 14.39-14.39 8.011 0 14.39 6.379 14.39 14.39v180.24c0 8.011-6.379 14.39-14.39 14.39-8.011.89-14.39-6.379-14.39-14.39z"/>
	</symbol>
	<symbol id="face" viewBox="0 0 512.001 512.001">
		<path d="M437.02 74.981C388.668 26.628 324.38 0 256.001 0c-67.98 0-132.951 26.912-181.02 74.981C26.629 123.333.001 187.621.001 256c0 53.306 16.227 104.399 46.926 147.757 30.02 42.398 71.526 74.321 120.03 92.318a8.098 8.098 0 0 0 9.267-2.703c1.111-1.452 1.63-3.274 1.63-5.102V342.232a8.084 8.084 0 0 0-8.084-8.084h-67.368v-59.284h67.368a8.084 8.084 0 0 0 8.084-8.084V256c0-70.34 66.739-132.042 142.821-132.042h35.032v59.284h-35.032c-22.814 0-43.559 6.567-58.413 18.489-16.436 13.192-25.124 31.958-25.124 54.269v10.779a8.084 8.084 0 0 0 8.084 8.084h31.872a8.084 8.084 0 0 0 0-16.168h-23.788V256c0-41.768 36.291-56.589 67.368-56.589h43.116a8.084 8.084 0 0 0 8.084-8.084v-75.453a8.084 8.084 0 0 0-8.084-8.084h-43.116c-39.518 0-79.573 15.72-109.895 43.129-31.659 28.619-49.095 65.937-49.095 105.082v2.695H94.316a8.084 8.084 0 0 0-8.084 8.084v75.453a8.084 8.084 0 0 0 8.084 8.084h67.368v126.248C74.182 439.076 16.169 351.887 16.169 256c0-132.244 107.588-239.832 239.83-239.832 132.098 0 239.833 107.734 239.833 239.833 0 132.243-107.588 239.83-239.832 239.83-.885 0-1.782-.005-2.695-.017V350.316H363.79a8.084 8.084 0 0 0 8.084-8.084v-75.453a8.084 8.084 0 0 0-8.084-8.084h-47.317a8.084 8.084 0 0 0 0 16.168h39.233v59.284H245.222a8.084 8.084 0 0 0-8.084 8.084v161.437c0 4.325 3.408 7.891 7.729 8.077 4.005.171 7.648.255 11.135.255 68.379 0 132.667-26.628 181.019-74.981 48.069-48.07 74.981-113.04 74.981-181.021-.001-68.377-26.63-132.665-74.982-181.017z"/>
	</symbol>
	<symbol id="fb" viewBox="0 0 512 512">
		<path d="M134.941 272.691h56.123v231.051a8.256 8.256 0 0 0 8.258 8.258h95.159a8.256 8.256 0 0 0 8.258-8.258V273.78h64.519a8.26 8.26 0 0 0 8.204-7.315l9.799-85.061a8.259 8.259 0 0 0-8.202-9.203h-74.316V118.88c0-16.073 8.654-24.224 25.726-24.224h48.59a8.258 8.258 0 0 0 8.258-8.258V8.319a8.256 8.256 0 0 0-8.258-8.258h-66.965A65.863 65.863 0 0 0 307.027 0c-11.619 0-52.006 2.281-83.909 31.63-35.348 32.524-30.434 71.465-29.26 78.217v62.352H134.94a8.256 8.256 0 0 0-8.258 8.258v83.975a8.26 8.26 0 0 0 8.259 8.259z"/>
	</symbol>
	<symbol id="google" viewBox="0 0 512 512">
		<path d="M437.019 74.981C388.667 26.628 324.379 0 256 0S123.333 26.628 74.982 74.981C26.628 123.333 0 187.621 0 256s26.628 132.667 74.982 181.019C123.333 485.372 187.621 512 256 512s132.667-26.628 181.019-74.981S512 324.379 512 256s-26.628-132.667-74.981-181.019zM256 495.832C123.756 495.832 16.168 388.244 16.168 256S123.756 16.168 256 16.168 495.832 123.756 495.832 256 388.244 495.832 256 495.832z"/><path d="M349.613 237.646c-.942-.363-1.956-.509-2.966-.509H223.663a8.084 8.084 0 0 0-8.084 8.084v53.895a8.084 8.084 0 0 0 8.084 8.084h51.182c-16.49 23.528-43.275 37.698-72.653 37.726h-.083c-47.216 0-87.072-38.317-88.864-85.45-.693-18.237 4.052-35.738 13.529-50.748 2.003-3.173 1.558-7.305-1.096-9.958l-.115-.115c-3.616-3.616-9.684-2.99-12.421 1.331-11.253 17.77-16.873 38.507-16.052 60.105 1.033 27.187 12.492 52.619 32.267 71.61 19.739 18.957 45.571 29.394 72.749 29.394h.101c40.138-.039 76.178-22.408 94.057-58.381 1.622-3.261.898-7.31-2.062-9.816-1.491-1.262-3.432-1.866-5.385-1.866h-57.069v-37.726h106.934l-.002 7.677c-.026 74.458-59.935 136.278-133.547 137.808a138.56 138.56 0 0 1-3.028.031c-77.738 0-141.802-63.222-142.809-140.931-.495-38.215 14.087-74.386 41.06-101.848 26.954-27.445 62.825-42.666 101.006-42.86l.735-.002c32.628 0 63.994 11.059 89.28 31.337l-26.9 26.901a105.131 105.131 0 0 0-62.371-20.511c-21.674 0-42.25 6.472-59.628 18.511-4.102 2.842-4.606 8.723-1.077 12.252l.114.114c2.748 2.748 7.057 3.109 10.253.9 14.68-10.144 32.042-15.608 50.338-15.608a88.933 88.933 0 0 1 57.74 21.3 8.086 8.086 0 0 0 10.97-.429L309 149.761c2.299-2.3 3.065-5.838 1.667-9.032-.466-1.064-1.201-1.993-2.063-2.771-29.269-26.426-67.057-40.947-106.507-40.947l-.818.002c-42.523.217-82.462 17.157-112.46 47.699-30.016 30.562-46.242 70.83-45.691 113.387.544 42.027 17.323 81.451 47.245 111.01 29.949 29.587 69.629 45.881 111.731 45.881 1.124 0 2.246-.012 3.364-.034 40.182-.835 77.802-17.334 105.928-46.457 28.004-28.995 43.435-67.177 43.45-107.51l.005-15.764c.003-3.258-1.962-6.314-5.238-7.579z"/><path d="M450.021 150.905h-24.253v-24.253a8.084 8.084 0 0 0-8.084-8.084h-43.116a8.084 8.084 0 0 0-8.084 8.084v24.253h-24.253a8.084 8.084 0 0 0-8.084 8.084v43.116a8.084 8.084 0 0 0 8.084 8.084h24.253v24.253a8.084 8.084 0 0 0 8.084 8.084h43.116a8.084 8.084 0 0 0 8.084-8.084v-24.253h24.253a8.084 8.084 0 0 0 8.084-8.084v-43.116a8.084 8.084 0 0 0-8.084-8.084zm-8.084 43.116h-24.253a8.084 8.084 0 0 0-8.084 8.084v24.253h-26.947v-24.253a8.084 8.084 0 0 0-8.084-8.084h-24.253v-26.947h24.253a8.084 8.084 0 0 0 8.084-8.084v-24.253H409.6v24.253a8.084 8.084 0 0 0 8.084 8.084h24.253v26.947z"/>
	</symbol>
	<symbol id="icon1" viewBox="0 0 497.984 497.984">
		<path d="M378.56 497.984L392.552 456h-200.8c-16.96 0-30.76-13.8-30.76-30.76V320h16v105.24c0 8.144 6.616 14.76 14.76 14.76H414.76l-7.336 22.016L444.112 440h22.128c8.136 0 14.752-6.616 14.752-14.76V294.76c0-8.144-6.616-14.76-14.76-14.76h-169.24v-16h169.24c16.96 0 30.76 13.8 30.76 30.76v130.488c0 16.952-13.8 30.752-30.76 30.752h-17.688l-69.984 41.984z"/><path d="M184.992 184h120v113.24c0 16.96-13.8 30.76-30.76 30.76h-9.24l16 40-72-40H31.752c-16.96 0-30.76-13.8-30.76-30.76V166.76c0-16.96 13.8-30.76 30.76-30.76h137.24v32l16 16z"/><path d="M378.56 233.984L392.552 192h-200.8c-16.96 0-30.76-13.8-30.76-30.76V30.76c0-16.96 13.8-30.76 30.76-30.76H466.24c16.952 0 30.752 13.8 30.752 30.76v130.488c0 16.952-13.8 30.752-30.76 30.752h-17.688l-69.984 41.984zM191.752 16c-8.144 0-14.76 6.616-14.76 14.76v130.488c0 8.136 6.616 14.752 14.76 14.752H414.76l-7.336 22.016L444.112 176h22.128c8.136 0 14.752-6.616 14.752-14.76V30.76c0-8.144-6.616-14.76-14.76-14.76h-274.48z"/><path d="M200.992 48h256v16h-256zm0 40h256v16h-256zm0 40h216v16h-216zm240 0h16v16h-16zm-400 56h104v16h-104zm0 40h224v16h-224zm0 40h184v16h-184zm208 0h16v16h-16zm80 48h128v16h-128zm-24 40h152v16h-152zm-104 40h216v16h-216zm240 0h16v16h-16z"/>
	</symbol>
	<symbol id="icon2" viewBox="0 0 64 64">
		<path d="M63.759 31.645l-7.035-8.207 7.035-8.207a.997.997 0 0 0-.274-1.524L40.71 1.054a1 1 0 0 0-1.19.164l-6.917 6.858-6.855-6.855a1 1 0 0 0-1.208-.158L.5 14.981a1.001 1.001 0 0 0-.15 1.624l8.146 6.982-7.03 9.374a.997.997 0 0 0 .315 1.474l7.003 3.89a.977.977 0 0 0-.06.297v9.25a3.45 3.45 0 0 0 1.717 2.976l20.35 11.748a3.557 3.557 0 0 0 1.775.474l.018-.001c.006 0 .01.003.016.003.01 0 .02-.006.03-.006a3.556 3.556 0 0 0 1.713-.47L54.63 50.883a3.573 3.573 0 0 0 1.778-3.082V37.496l7.114-4.347a1 1 0 0 0 .237-1.504zm-32.16 2.729L11.843 23.397 31.6 11.323v23.05zm2-23.091l19.824 12.114L33.6 34.411V11.283zm6.797-8.115L61.443 14.86l-6.24 7.28-21-12.833 6.193-6.14zm-15.519.01l6.15 6.15-21.07 12.879-7.234-6.2 22.154-12.83zM10.134 24.735l20.968 11.65-6.341 8.529L3.754 33.243l6.38-8.508zm1.308 24.382a1.444 1.444 0 0 1-.717-1.244v-8.47l13.83 7.684a1 1 0 0 0 1.288-.277l5.757-7.742v21.686L11.442 49.117zM54.408 47.8c0 .555-.299 1.073-.779 1.35l-20.03 11.565v-21.67l5.826 7.767a.999.999 0 0 0 1.321.254l13.662-8.349V47.8zM40.48 44.886l-6.36-8.477 21.06-11.7 6.297 7.345L40.48 44.886z"/>
	</symbol>
	<symbol id="icon3" viewBox="0 0 496 496">
		<path d="M160 120h176v96H160z"/><path d="M496 192v-40h-80v-24h16V88h-56V64h16V24H104v40h16v24H64v40h16v24H0v40h16v264H0v16h496v-16h-16V192h16zm-16-24v8h-64v-8h64zm-64-64v8h-40v-8h40zM120 40h256v8H120v-8zm16 24h224v248H136V64zm-56 40h40v8H80v-8zm-64 64h64v8H16v-8zm16 24h48v264H32V192zm64 264V128h24v328H96zm232 0h-72v-96h72v96zm-88 0h-72v-96h72v96zm104 0V344H152v112h-16V328h224v128h-16zm32-328h24v328h-24V128zm88 328h-48V192h48v264z"/><path d="M184 144h128v16H184zm112 32h16v16h-16zm-112 0h96v16h-96zm32 208h16v40h-16zm48 0h16v40h-16z"/>
	</symbol>
	<symbol id="icon4" viewBox="0 0 60 60">
		<path d="M55.517 46.55l-9.773-4.233c-.23-.115-.485-.396-.704-.771l6.525-.005c.114.011 2.804.257 4.961-.67a2.94 2.94 0 0 0 1.669-1.907 2.967 2.967 0 0 0-.426-2.523c-1.865-2.654-6.218-9.589-6.354-16.623-.003-.121-.397-12.083-12.21-12.18-1.739.014-3.347.309-4.81.853a8.316 8.316 0 0 0-1.488-2.459C30.854 3.688 27.521 2.5 23 2.5s-7.854 1.188-9.908 3.53c-2.368 2.701-2.148 5.976-2.092 6.525v5.319c-.64.729-1 1.662-1 2.625v4c0 1.217.553 2.352 1.497 3.109.916 3.627 2.833 6.36 3.503 7.237v3.309c0 .968-.528 1.856-1.377 2.32L4.702 45.34A9.02 9.02 0 0 0 0 53.262V57.5h60v-3.697a8.065 8.065 0 0 0-4.483-7.253zM44 55.5H2v-2.238a7.016 7.016 0 0 1 3.659-6.164l8.921-4.866A4.644 4.644 0 0 0 17 38.155v-4.019l-.233-.278c-.024-.029-2.475-2.994-3.41-7.065l-.091-.396-.341-.22A1.995 1.995 0 0 1 12 24.5v-4c0-.561.238-1.084.67-1.475l.33-.297V12.5l-.009-.131c-.003-.027-.343-2.799 1.605-5.021C16.253 5.458 19.081 4.5 23 4.5c3.905 0 6.727.951 8.386 2.828.825.932 1.24 1.973 1.447 2.867l.045.208c.014.071.029.142.04.21a12.777 12.777 0 0 1 .057.384c.015.124.027.244.035.355l.001.026a9.417 9.417 0 0 1 .016.354c.002.083.002.162.001.231v.03c-.004.235-.02.375-.02.378L33 18.728l.33.298c.432.39.67.913.67 1.474v4c0 .873-.572 1.637-1.422 1.899l-.498.153-.16.495a20.934 20.934 0 0 1-2.834 5.713c-.297.421-.586.794-.837 1.079l-.249.284v4.125c0 .253.025.501.064.745.008.052.022.102.032.154a4.692 4.692 0 0 0 .203.723c.078.209.169.411.275.605l.035.067c.145.256.312.499.504.723l.228.281h.039c.343.338.737.632 1.185.856l9.553 4.776A6.979 6.979 0 0 1 44 53.457V55.5zm14 0H46v-2.043a8.972 8.972 0 0 0-4.986-8.068l-6.858-3.43c.169-.386.191-.828.043-1.254a1.706 1.706 0 0 0-1.63-1.16h-2.217c-.046-.081-.076-.17-.113-.256-.05-.115-.109-.228-.142-.349a2.61 2.61 0 0 1-.097-.692v-3.381c.229-.28.47-.599.719-.951a22.886 22.886 0 0 0 2.954-5.799A3.968 3.968 0 0 0 36 24.5v-4c0-.963-.36-1.896-1-2.625v-5.319a8.799 8.799 0 0 0-.084-2.139c1.288-.506 2.731-.767 4.29-.78 9.841.081 10.2 9.811 10.21 10.221.147 7.583 4.746 14.927 6.717 17.732a.97.97 0 0 1 .139.827.934.934 0 0 1-.535.615c-1.68.723-3.959.518-4.076.513h-6.883c-.643 0-1.229.327-1.568.874a1.823 1.823 0 0 0-.086 1.783c.313.631.866 1.474 1.775 1.927l9.747 4.222A6.074 6.074 0 0 1 58 53.803V55.5z"/>
	</symbol>
	<symbol id="instagram" viewBox="0 0 512 512">
		<path d="M437.019 74.981C388.667 26.628 324.379 0 256 0S123.333 26.628 74.981 74.981C26.628 123.333 0 187.621 0 256s26.628 132.667 74.981 181.019C123.333 485.372 187.621 512 256 512s132.667-26.628 181.019-74.981S512 324.379 512 256s-26.628-132.667-74.981-181.019zM256 495.832C123.756 495.832 16.168 388.244 16.168 256S123.756 16.168 256 16.168 495.832 123.756 495.832 256 388.244 495.832 256 495.832z"/><path d="M347.845 97.011h-183.69c-37.024 0-67.144 30.121-67.144 67.144v183.692c0 37.022 30.121 67.143 67.144 67.143h183.692c37.022 0 67.143-30.121 67.143-67.144V164.155c-.001-37.024-30.121-67.144-67.145-67.144zm50.976 250.834c0 28.108-22.868 50.976-50.976 50.976h-183.69c-28.108 0-50.976-22.868-50.976-50.976v-183.69c0-28.108 22.868-50.976 50.976-50.976h183.692c28.107 0 50.975 22.868 50.975 50.976v183.69z"/><path d="M339.402 251.22c-2.391-42.533-37.002-76.75-79.558-78.669-49.108-2.214-89.535 38.232-87.292 87.346 1.945 42.56 36.19 77.154 78.728 79.51 17.951.995 34.762-3.727 48.803-12.494 4.374-2.731 5.087-8.814 1.441-12.459l-.115-.115c-2.657-2.658-6.778-3.059-9.971-1.075a66.948 66.948 0 0 1-36.158 10.102c-37.455-.394-67.676-31.844-66.621-69.286 1.061-37.681 33.215-67.721 71.657-65.312 33.126 2.076 60.09 28.49 62.819 61.569 1.111 13.475-1.787 26.206-7.61 37.157-1.667 3.136-1.153 6.982 1.358 9.493l.124.124c3.773 3.773 10.154 2.886 12.675-1.816 6.982-13.026 10.619-28.098 9.72-44.075z"/><circle cx="342.232" cy="158.989" r="21.558"/>
	</symbol>
	<symbol id="left" viewBox="0 0 59.414 59.414">
		<path d="M43.854 59.414L14.146 29.707 43.854 0l1.414 1.414-28.293 28.293L45.268 58z"/>
	</symbol>
	<symbol id="marker" viewBox="0 0 512 512">
		<path d="M256 0C154.734 0 72.348 82.386 72.348 183.652c0 34.826 9.837 68.755 28.456 98.109l141.098 222.484c3.06 4.831 8.38 7.755 14.098 7.755s11.038-2.924 14.098-7.756L411.196 281.76c18.619-29.353 28.456-63.282 28.456-98.108C439.652 82.386 357.266 0 256 0zm0 283.826c-55.234 0-100.174-44.94-100.174-100.174 0-55.234 44.94-100.174 100.174-100.174s100.174 44.94 100.174 100.174c0 55.234-44.94 100.174-100.174 100.174z"/>
	</symbol>
	<symbol id="right" viewBox="0 0 59.414 59.414">
		<path d="M15.561 59.414L14.146 58l28.293-28.293L14.146 1.414 15.561 0l29.707 29.707z"/>
	</symbol>
	<symbol id="ru" viewBox="0 0 124.099 124.1">
		<path d="M18.25 106.7c5.6 5.399 12.3 9.8 20.1 12.8 7.8 3 16.5 4.6 25.9 4.6 10.5 0 20.2-1.6 28.9-4.899 7.9-2.9 1.1-17.601-4.7-15.2-6.399 2.7-14.2 4.1-23.101 4.1-7 0-13.399-1.1-19-3.199-5.6-2.101-10.5-5.101-14.5-9-4-3.9-7.2-8.7-9.4-14.2-2.3-5.601-3.4-12-3.4-19 0-6.6 1.1-12.9 3.3-18.5 2.2-5.6 5.2-10.6 9.2-14.6 3.9-4.1 8.7-7.4 14.2-9.7 5.5-2.3 11.7-3.5 18.5-3.5 6.301 0 12.1.9 17.301 2.5 5.1 1.6 9.5 4.1 13.199 7.4 3.7 3.3 6.6 7.3 8.7 12.1 2.101 4.8 3.101 10.4 3.101 16.8 0 3.7-.4 7.2-1.201 10.5-.799 3.1-1.799 5.899-3.199 8.1-1.301 2.101-2.801 3.8-4.6 5-2.101 1.4-5.201 2.2-7.601 1.4-3-1-2.399-5.2-2.2-7.7.301-3.4 1.2-6.6 1.9-9.9 1.1-5.4 2.3-10.7 3.4-16 .6-2.9 1.299-5.9 1.899-8.8.8-3.7-2-7.3-5.899-7.3h-4.4c-2.7 0-5.1 1.8-5.801 4.4-.299 1.2-.6 2.2-.6 2.2-2.199-6.8-10.3-8.7-16.7-8.6-8.4.1-16.1 4.4-21.7 10.5-.5.6-1.1 1.2-1.6 1.8-2.9 3.5-5.1 7.6-6.6 11.9-1.6 4.6-2.4 9.3-2.4 14.1 0 4.101.6 8 1.7 11.5 1.2 3.601 2.9 6.7 5.1 9.3 2.2 2.601 5 4.7 8.3 6.2 3.3 1.5 7 2.3 11 2.3 3 0 5.8-.5 8.3-1.399 2.4-.9 4.6-2 6.5-3.3 1.5-1 2.9-2.2 4-3.301.699 1.301 1.5 2.4 2.6 3.5 2.801 3 7.1 4.5 12.801 4.5 4.5 0 8.899-.899 13-2.699 4.1-1.801 7.799-4.601 10.899-8.2 3-3.601 5.5-8 7.3-13.2 1.801-5.2 2.7-11.2 2.7-17.8 0-9-1.7-17-5-23.7s-7.8-12.4-13.399-16.9c-5.5-4.5-11.9-7.8-19-10.1C79.05 1.1 71.75 0 64.25 0c-8.7 0-17 1.6-24.7 4.7-7.7 3.2-14.5 7.6-20.2 13.1-5.8 5.5-10.4 12.2-13.7 19.7-3.3 7.5-5 15.9-5 24.7 0 8.899 1.5 17.3 4.6 24.8 3 7.6 7.4 14.2 13 19.7zm54.099-42c-.699 2.7-1.699 5.3-3.1 7.7-1.4 2.3-3.1 4.199-5.3 5.699-2 1.4-4.4 2.101-7.4 2.101-1.9 0-3.4-.4-4.5-1.101-1.2-.8-2.2-1.8-2.9-3.1-.8-1.4-1.3-2.9-1.6-4.4-.3-1.6-.5-3.1-.5-4.399 0-2.8.4-5.6 1.2-8.5.8-2.8 1.9-5.4 3.4-7.6 1.5-2.2 3.2-4 5.3-5.4 1.9-1.3 4-1.9 6.5-1.9 2 0 3.601.3 4.8 1 1.2.7 2.2 1.6 2.9 2.7.8 1.2 1.3 2.6 1.699 4.1.4 1.7.601 3.5.601 5.2-.1 2.5-.399 5.1-1.1 7.9z"/>
	</symbol>
	<symbol id="telegram" viewBox="0 0 512 512">
		<path d="M437.019 74.981C388.667 26.628 324.379 0 256 0S123.333 26.628 74.981 74.981C26.628 123.333 0 187.621 0 256s26.628 132.667 74.981 181.019C123.333 485.372 187.621 512 256 512s132.667-26.628 181.019-74.981S512 324.379 512 256s-26.628-132.667-74.981-181.019zM256 495.832C123.756 495.832 16.168 388.244 16.168 256S123.756 16.168 256 16.168 495.832 123.756 495.832 256 388.244 495.832 256 495.832z"/><path d="M400.989 98.637a8.082 8.082 0 0 0-8.577-.722L79.822 259.599a8.086 8.086 0 0 0 .098 14.412l81.764 40.88v81.006c0 2.12.721 4.218 2.18 5.757a8.109 8.109 0 0 0 5.905 2.557 8.072 8.072 0 0 0 3.927-1.018l93.544-51.969 71.597 30.684c1.523.653 3.209.923 4.839.619a8.097 8.097 0 0 0 6.485-6.372l18.115-90.577c1-5.003-2.826-9.67-7.928-9.67a8.08 8.08 0 0 0-7.927 6.496l-16.162 80.808-66.295-28.412a8.092 8.092 0 0 0-7.111.363l-85 47.223v-72.492c0-3.062-1.73-5.86-4.469-7.231l-72.015-36.007 283.53-146.654-24.605 123.023c-1 5.003 2.826 9.67 7.928 9.67a8.088 8.088 0 0 0 7.928-6.499l27.903-139.517a8.084 8.084 0 0 0-3.064-8.042z"/><path d="M348.576 164.757a8.083 8.083 0 0 0-10.581-1.873l-140.126 86.232a8.084 8.084 0 0 0-3.847 6.885v86.232a8.082 8.082 0 0 0 15.313 3.616l31.75-63.5 106.863-106.863a8.087 8.087 0 0 0 .628-10.729zM228.725 271.842a8.094 8.094 0 0 0-1.513 2.101l-17.022 34.043v-47.468l77.636-47.777-59.101 59.101z"/>
	</symbol>
	<symbol id="twitter" viewBox="0 0 512 512">
		<path d="M437.019 74.981C388.667 26.628 324.379 0 256 0S123.333 26.628 74.981 74.981C26.628 123.333 0 187.621 0 256s26.628 132.667 74.981 181.019C123.333 485.372 187.621 512 256 512s132.667-26.628 181.019-74.981S512 324.379 512 256s-26.628-132.667-74.981-181.019zM256 495.832C123.756 495.832 16.168 388.244 16.168 256S123.756 16.168 256 16.168 495.832 123.756 495.832 256 388.244 495.832 256 495.832z"/><path d="M436.352 162.391c-2.433-2.104-5.958-2.463-8.875-1.11a125.666 125.666 0 0 1-12.806 5.107 73.664 73.664 0 0 0 10.188-19.432c1.002-2.891.503-6.176-1.569-8.427a8.088 8.088 0 0 0-9.963-1.56 116.38 116.38 0 0 1-37.931 13.618c-14.958-13.729-34.201-21.24-54.643-21.24-42.313 0-77.147 32.642-80.648 74.065-8.741-1.364-25.844-6.241-29.933-7.578-29.581-10.075-56.228-27.814-77.075-51.307-1.236-1.393-2.864-2.429-4.695-2.764a8.099 8.099 0 0 0-8.745 4.339c-5.181 10.383-7.809 21.548-7.809 33.185 0 16.093 5.038 31.261 14.113 43.73-2.828-.531-5.838.462-7.812 2.89-1.135 1.396-1.703 3.168-1.77 4.966a67.49 67.49 0 0 0-.057 2.472c0 21.817 9.99 41.646 26.136 54.588a8.125 8.125 0 0 0-2.703 3.082c-.963 1.904-1.07 4.143-.434 6.178 7.052 22.559 24.572 39.739 46.292 46.781-19.673 11.976-42.429 18.434-65.679 18.434-2.053 0-4.166-.053-6.279-.156a8.098 8.098 0 0 0-8.371 6.744c-.568 3.349 1.162 6.698 4.087 8.423 29.718 17.529 63.734 26.792 98.39 26.792 41.361 0 80.758-12.881 113.607-36.725 4.052-2.942 4.499-8.821.959-12.362l-.003-.003c-2.852-2.852-7.338-3.159-10.605-.793-29.275 21.198-65.207 33.714-103.959 33.714a177.989 177.989 0 0 1-63.255-11.61c24.303-4.268 47.275-14.808 66.409-30.712 2.312-1.922 3.529-4.962 2.947-7.911a8.086 8.086 0 0 0-7.707-6.535 55.504 55.504 0 0 1-46.698-28.06 77.33 77.33 0 0 0 13.44-1.841c3.382-.77 6.119-3.472 6.559-6.913a8.086 8.086 0 0 0-6.085-8.897 53.623 53.623 0 0 1-40.14-43.256 73.794 73.794 0 0 0 19.047 1.896 8.088 8.088 0 0 0 7.792-7.166c.374-3.196-1.323-6.291-4.07-7.966-17.529-10.682-27.985-29.272-27.985-49.783 0-5.014.623-9.917 1.859-14.665 21.193 20.954 46.914 36.922 75.086 46.518.258.088 28.093 8.754 38.636 8.797.688.017 3.975.162 3.98.162 3.388.137 6.673-1.919 7.953-5.326.368-.978.502-2.03.477-3.074-.011-.471-.023-.942-.023-1.416 0-35.713 29.055-64.768 64.769-64.768 17.487 0 33.878 6.872 46.158 19.348 1.777 1.807 4.282 2.697 6.793 2.349a133.153 133.153 0 0 0 24.037-5.632 57.859 57.859 0 0 1-14.502 11.504c-3.692 2.067-5.258 6.558-3.518 10.415l.119.264a8.087 8.087 0 0 0 8.136 4.72 142.822 142.822 0 0 0 19.753-3.291 130.55 130.55 0 0 1-18.849 16.051 8.044 8.044 0 0 0-3.416 6.865l.017.511c.019.553.04 1.107.04 1.664v.731c-.186 45.29-17.461 86.654-45.668 117.994-2.882 3.201-2.702 8.117.344 11.163 3.312 3.312 8.72 3.151 11.855-.332 31.691-35.208 49.224-80.18 49.633-127.902a145.695 145.695 0 0 0 36.227-39.093 8.084 8.084 0 0 0-1.558-10.454z"/>
	</symbol>
	<symbol id="up" viewBox="0 0 59.415 59.415">
		<path d="M58 45.268L29.708 16.975 1.414 45.268 0 43.854l29.708-29.707 29.707 29.707z"/>
	</symbol>
	<symbol id="vk" viewBox="0 0 512 512">
		<path d="M440.649 295.361c16.984 16.582 34.909 32.182 50.142 50.436 6.729 8.112 13.099 16.482 17.973 25.896 6.906 13.382.651 28.108-11.348 28.907l-74.59-.034c-19.238 1.596-34.585-6.148-47.489-19.302-10.327-10.519-19.891-21.714-29.821-32.588-4.071-4.444-8.332-8.626-13.422-11.932-10.182-6.609-19.021-4.586-24.84 6.034-5.926 10.802-7.271 22.762-7.853 34.8-.799 17.564-6.108 22.182-23.751 22.986-37.705 1.778-73.489-3.926-106.732-22.947-29.308-16.768-52.034-40.441-71.816-67.24-38.513-52.183-68.008-109.525-94.516-168.473-5.967-13.281-1.603-20.41 13.051-20.663 24.333-.473 48.663-.439 73.025-.034 9.89.145 16.437 5.817 20.256 15.16 13.165 32.371 29.274 63.169 49.494 91.716 5.385 7.6 10.876 15.201 18.694 20.55 8.65 5.923 15.236 3.96 19.305-5.676 2.582-6.11 3.713-12.691 4.295-19.234 1.928-22.513 2.182-44.988-1.199-67.422-2.076-14.001-9.962-23.065-23.933-25.714-7.129-1.351-6.068-4.004-2.616-8.073 5.995-7.018 11.634-11.387 22.875-11.387h84.298c13.271 2.619 16.218 8.581 18.035 21.934l.072 93.637c-.145 5.169 2.582 20.51 11.893 23.931 7.452 2.436 12.364-3.526 16.836-8.251 20.183-21.421 34.588-46.737 47.457-72.951 5.711-11.527 10.622-23.497 15.381-35.458 3.526-8.875 9.059-13.242 19.056-13.049l81.132.072c2.406 0 4.84.035 7.17.434 13.671 2.33 17.418 8.211 13.195 21.561-6.653 20.945-19.598 38.4-32.255 55.935-13.53 18.721-28.001 36.802-41.418 55.634-12.328 17.2-11.349 25.868 3.964 40.805z"/>
	</symbol>
	<symbol id="vko" viewBox="0 0 511.998 511.998">
		<path d="M489.25 335.681c-11.137-13.347-23.719-25.264-35.888-36.789-4.276-4.051-8.7-8.24-12.96-12.399l-.003-.003c-5.73-5.589-8.535-9.556-8.828-12.486-.288-2.88 1.68-7.153 6.207-13.469 6.769-9.5 13.984-19.016 20.964-28.218 6.204-8.18 12.618-16.639 18.766-25.146l1.38-1.91c11.995-16.602 24.397-33.769 31.043-54.689 1.898-5.998 3.869-14.874-.885-22.666-4.756-7.794-13.573-10.104-19.787-11.162-3.035-.52-5.915-.563-8.595-.563l-77.806-.069c-13.452-.224-22.784 6.152-27.87 18.956-4.07 10.226-8.877 22.077-14.446 33.319-10.655 21.703-24.194 46.7-43.818 67.527l-.872.928c-1.336 1.426-3.519 3.758-4.64 4.293-2.126-1.336-4.579-8.977-4.467-12.98.003-.099.004-.197.004-.295l-.069-89.903c0-.457-.032-.914-.093-1.367-1.745-12.826-5.147-25.684-25.447-29.69a10.164 10.164 0 0 0-1.975-.193H198.23c-15.227 0-23.281 6.973-29.738 14.533-1.869 2.204-6.835 8.056-4.305 15.21 2.56 7.239 10.188 8.684 12.692 9.158 8.82 1.674 13.381 6.659 14.793 16.189 2.791 18.517 3.133 38.326 1.078 62.309-.573 6.439-1.639 11.333-3.359 15.403-.476 1.127-.894 1.825-1.186 2.236-.466-.188-1.191-.548-2.195-1.235-6.198-4.241-10.869-10.834-15.386-17.208-18.042-25.473-33.218-53.607-46.401-86.022-5.429-13.283-15.635-20.702-28.719-20.894-24.928-.415-47.983-.405-70.459.032-10.601.184-18.035 3.521-22.099 9.92-4.069 6.411-3.92 14.585.444 24.299 31.196 69.37 59.522 119.834 91.842 163.628 22.757 30.832 45.665 52.234 72.092 67.354 27.766 15.885 59.08 23.67 95.408 23.669 4.131 0 8.334-.101 12.593-.304 22.413-1.021 31.532-9.936 32.527-31.765.558-11.537 1.842-20.883 6.297-29.003 1.246-2.273 2.652-3.797 3.76-4.076 1.178-.294 3.267.427 5.59 1.936 4.247 2.758 7.904 6.498 10.911 9.781 3.048 3.337 6.128 6.784 9.109 10.117 6.343 7.097 12.902 14.436 19.774 21.436 15.543 15.844 33.461 23.11 53.278 21.588l71.205.033h.004c.226 0 .452-.007.678-.022 8.213-.547 15.314-5.094 19.484-12.478 5.021-8.892 4.945-20.155-.207-30.14-5.376-10.381-12.351-19.316-18.485-26.71zm.931 46.821c-.982 1.739-2.193 2.056-2.818 2.132l-71.19-.033h-.007a9.82 9.82 0 0 0-.841.035c-14.025 1.168-25.946-3.762-37.474-15.512-6.539-6.662-12.937-13.819-19.124-20.741-3.015-3.373-6.132-6.862-9.264-10.29-3.884-4.242-8.685-9.117-14.854-13.123-9.236-5.995-16.89-5.814-21.683-4.606-4.743 1.195-11.485 4.605-16.66 14.049-6.704 12.219-8.183 25.401-8.785 37.854-.348 7.616-1.636 9.628-2.174 10.139-.705.67-3.061 1.848-10.922 2.207-37.776 1.776-69.478-4.989-96.931-20.696-23.882-13.664-44.794-33.291-65.809-61.762-31.425-42.579-59.075-91.887-89.65-159.877-1.108-2.463-1.45-4-1.549-4.823.78-.256 2.304-.593 4.976-.642 22.248-.431 45.062-.443 69.765-.031 3.382.05 7.233 1.065 10.149 8.2 13.774 33.869 29.685 63.344 48.645 90.112 5.034 7.105 11.3 15.949 20.509 22.25 8.435 5.776 15.28 5.5 19.538 4.252 4.26-1.249 10.172-4.719 14.154-14.147 2.569-6.077 4.122-12.92 4.891-21.566 2.197-25.653 1.807-46.981-1.225-67.098-2.137-14.413-9.579-24.825-21.302-30.142 2.082-1.084 4.428-1.536 7.686-1.536h79.877c4.494 1.008 5.384 2.192 5.689 2.597 1.294 1.721 2.034 5.792 2.486 8.973l.068 89.074c-.18 8.539 3.97 27.477 18.1 32.67.116.043.233.083.35.121 12.864 4.204 21.373-4.877 25.941-9.756l.814-.866c21.496-22.815 35.971-49.473 47.28-72.508 5.894-11.895 10.886-24.199 15.107-34.805 2.112-5.319 4.034-6.195 8.62-6.098.063.002.125.002.189.002l77.905.069c1.812 0 3.703.021 5.17.272 3.712.632 5.241 1.402 5.745 1.721.052.591.04 2.291-1.082 5.839-5.651 17.789-16.572 32.903-28.133 48.905l-1.381 1.913c-6.007 8.312-12.35 16.675-18.483 24.764-7.07 9.321-14.378 18.958-21.307 28.684-14.814 20.669-13.512 34.385 4.975 52.417 4.369 4.265 8.847 8.507 13.179 12.609 12.281 11.633 23.882 22.62 34.235 35.026 5.42 6.534 11.564 14.381 16.042 23.029 2.336 4.527 1.763 8.617.563 10.743z"/><path d="M74.382 169.635a1088.422 1088.422 0 0 1-4.454-8.914c-2.496-5.049-8.608-7.123-13.661-4.627-5.05 2.495-7.122 8.611-4.627 13.661 1.499 3.034 3.012 6.062 4.537 9.081a10.199 10.199 0 0 0 13.702 4.502c5.029-2.542 7.044-8.676 4.503-13.703zm63.971 105.806c-16.724-22.659-32.37-47.27-47.83-75.239-2.725-4.93-8.931-6.716-13.86-3.992-4.929 2.725-6.717 8.931-3.992 13.86 15.896 28.756 32.013 54.102 49.271 77.485 2 2.71 5.087 4.143 8.214 4.143a10.14 10.14 0 0 0 6.048-1.995c4.531-3.344 5.493-9.729 2.149-14.262z"/>
	</symbol>
</svg>