<svg xmlns="http://www.w3.org/2000/svg" class="icons-sprite">
	<symbol id="accept" viewBox="0 0 406.834 406.834">
		<path d="M385.621 62.507L146.225 301.901 21.213 176.891 0 198.104l146.225 146.223L406.834 83.72z"/>
	</symbol>
	<symbol id="android" viewBox="0 0 413.137 413.137">
		<path d="M311.358 136.395H101.779a8.44 8.44 0 0 0-8.441 8.441v175.749a8.44 8.44 0 0 0 8.441 8.441h37.363v59.228c0 13.742 11.14 24.883 24.883 24.883 13.742 0 24.883-11.14 24.883-24.883v-59.228h34.803v59.228c0 13.742 11.14 24.883 24.883 24.883 13.742 0 24.883-11.14 24.883-24.883v-59.228h37.882a8.44 8.44 0 0 0 8.441-8.441V144.836a8.442 8.442 0 0 0-8.442-8.441zm-253.502-.041c-13.742 0-24.883 11.14-24.883 24.883v101.065c0 13.742 11.14 24.883 24.883 24.883 13.742 0 24.883-11.14 24.883-24.883V161.237c-.001-13.742-11.141-24.883-24.883-24.883zm297.425 0c-13.742 0-24.883 11.14-24.883 24.883v101.065c0 13.742 11.14 24.883 24.883 24.883 13.742 0 24.883-11.14 24.883-24.883V161.237c0-13.742-11.14-24.883-24.883-24.883zm-251.806-12.285h205.692c5.366 0 9.368-4.943 8.266-10.195-6.804-32.428-27.45-59.756-55.465-75.543l17.584-31.727a4.447 4.447 0 0 0-7.78-4.311l-17.717 31.966c-14.511-6.734-30.683-10.495-47.734-10.495-17.052 0-33.224 3.761-47.735 10.495L140.869 2.292a4.447 4.447 0 0 0-7.779 4.311l17.584 31.727c-28.015 15.788-48.661 43.115-55.465 75.544-1.103 5.252 2.899 10.195 8.266 10.195zm164.222-47.283c0 5.282-4.282 9.565-9.565 9.565-5.282 0-9.565-4.282-9.565-9.565 0-5.282 4.282-9.565 9.565-9.565 5.283 0 9.565 4.283 9.565 9.565zm-113.189-9.565c5.282 0 9.565 4.282 9.565 9.565 0 5.282-4.282 9.565-9.565 9.565-5.282 0-9.565-4.282-9.565-9.565 0-5.282 4.282-9.565 9.565-9.565z"/>
	</symbol>
	<symbol id="apple" viewBox="0 0 291.538 291.538">
		<path d="M188.373 44.308c10.97-11.744 18.39-28.049 16.359-44.308-15.804.564-34.958 9.277-46.302 21.02-10.169 10.396-19.072 27.011-16.696 42.951 17.635 1.193 35.651-7.938 46.639-19.663zm33.657 112.285c-.337-36.451 28.859-53.958 30.152-54.804-16.414-24.753-41.977-28.14-51.081-28.522-21.767-2.285-42.442 13.182-53.493 13.182-11.006 0-28.03-12.882-46.083-12.536-23.733.391-45.601 14.211-57.79 36.114-24.654 44.063-6.319 109.336 17.705 145.077 11.744 17.497 25.727 37.125 44.089 36.415 17.725-.71 24.407-11.789 45.792-11.789 21.394 0 27.384 11.789 46.101 11.434 19.045-.355 31.098-17.834 42.742-35.386 13.473-20.292 19.027-39.938 19.345-40.93-.409-.237-37.088-14.666-37.479-58.255z"/>
	</symbol>
	<symbol id="card" viewBox="0 0 512 512">
		<path d="M499.8 108c0-16.7-13.5-30.2-30.2-30.2H41.3c-16.7 0-30.2 13.5-30.2 30.2v296c0 16.7 13.5 30.2 30.2 30.2h429.3c16.7 0 30.2-13.5 29.2-31.3V108zM480 210.2H32V180h448v30.2zM30.9 109.1c0-6.3 5.2-10.4 10.4-10.4v-1h428.3c6.3 0 10.4 5.2 10.4 10.4v52.1H30.9v-51.1zM480 404c0 6.3-5.2 10.4-10.4 10.4H41.3c-6.3 0-10.4-5.2-10.4-10.4V231H480v173z"/>
	</symbol>
	<symbol id="cart" viewBox="0 0 512 512">
		<path d="M494.347 114.764a8.823 8.823 0 0 0-8.828 8.828v70.621h-35.31v-76.138c0-4.879-3.948-8.828-8.828-8.828s-8.828 3.948-8.828 8.828v76.138h-37.336v-82.388c0-4.879-3.948-8.828-8.828-8.828s-8.828 3.948-8.828 8.828v82.388h-37.698v-89.749c0-4.879-3.948-8.828-8.828-8.828s-8.828 3.948-8.828 8.828v89.75h-35.715l-4.018-97.034c-.199-4.879-4.552-8.629-9.181-8.457-4.871.199-8.664 4.31-8.457 9.181l3.988 96.31h-37.243L218.045 87.635c-.621-4.836-5.009-8.233-9.87-7.647-4.836.612-8.258 5.035-7.647 9.87l13.256 104.353h-41.315L147.95 80.531c-1.035-4.767-5.732-7.81-10.492-6.767-4.767 1.026-7.794 5.725-6.767 10.492l23.715 109.957h-41.388L64.483 34.048a26.469 26.469 0 0 0-20.156-18.293L10.56 9.005C5.732 7.996 1.12 11.151.172 15.927a8.827 8.827 0 0 0 6.922 10.388l33.759 6.75a8.848 8.848 0 0 1 6.733 6.103l84.141 277.676-46.029 85.498c-4.466 8.285-4.25 18.06.569 26.139 4.828 8.077 13.327 12.905 22.741 12.905H476.69c4.879 0 8.828-3.948 8.828-8.828s-3.948-8.828-8.828-8.828H109.01c-4.526 0-6.81-3.009-7.577-4.301-.776-1.293-2.336-4.733-.19-8.715l45.483-84.475 331.94-24.897c13.741-1.026 24.509-12.629 24.509-26.406V123.591a8.823 8.823 0 0 0-8.828-8.827zM147.639 308.463l-29.271-96.595h39.846l20.333 94.277-30.908 2.318zm48.683-3.651l-20.046-92.944h39.75l11.509 90.603-31.213 2.341zm48.845-3.662l-11.341-89.281h35.73l3.609 87.183-27.998 2.098zm77.042-5.778l-31.43 2.357-3.555-85.862h34.985v83.505zm55.353-4.15l-37.698 2.828v-82.182h37.698v79.354zm54.992-4.125l-37.336 2.801v-78.031h37.336v75.23zm52.965-12.16c0 4.595-3.586 8.457-8.172 8.802l-27.138 2.035v-73.906h35.31v63.069z"/><circle cx="132.414" cy="476.7" r="26.483"/><circle cx="450.208" cy="476.7" r="26.483"/><path d="M132.415 485.523a10.767 10.767 0 0 1-10.559-8.657l-7.096-35.481h35.31l-7.096 35.481a10.77 10.77 0 0 1-10.559 8.657zm317.794 0a10.767 10.767 0 0 1-10.559-8.657l-7.096-35.481h35.31l-7.096 35.481a10.77 10.77 0 0 1-10.559 8.657zm54.034-370.69L72.96 62.023l5.596 18.464 423.55 51.863c.362.052.724.07 1.078.07 4.396 0 8.207-3.276 8.75-7.758.593-4.838-2.846-9.243-7.691-9.829z"/>
	</symbol>
	<symbol id="check" viewBox="0 0 456.556 456.556">
		<path d="M228.278 456.556C102.403 456.556 0 354.153 0 228.278S102.403 0 228.278 0c42.641 0 84.233 11.834 120.287 34.228 6.301 3.91 8.232 12.19 4.322 18.492-3.917 6.301-12.197 8.246-18.492 4.322-31.794-19.751-68.49-30.185-106.117-30.185-111.065 0-201.422 90.36-201.422 201.422S117.213 429.7 228.278 429.7c111.062 0 201.422-90.36 201.422-201.422 0-22.324-3.623-44.243-10.77-65.147-2.399-7.015 1.35-14.652 8.365-17.051 7.029-2.385 14.652 1.35 17.051 8.365 8.099 23.709 12.211 48.551 12.211 73.834-.001 125.874-102.404 228.277-228.279 228.277z"/><path d="M228.278 305.727c-3.406 0-6.7-1.294-9.193-3.644L111.66 201.17c-5.406-5.077-5.672-13.575-.594-18.981 5.078-5.399 13.575-5.679 18.981-.587l97.092 91.206L403.564 63.371c4.77-5.672 13.246-6.399 18.918-1.616 5.672 4.777 6.399 13.246 1.616 18.918L238.545 300.951a13.434 13.434 0 0 1-9.484 4.756c-.258.013-.524.02-.783.02z"/>
	</symbol>
	<symbol id="com" viewBox="0 0 459.529 459.529">
		<path d="M17 55.231h48.733l69.417 251.033c1.983 7.367 8.783 12.467 16.433 12.467h213.35c6.8 0 12.75-3.967 15.583-10.2l77.633-178.5c2.267-5.383 1.7-11.333-1.417-16.15-3.117-4.817-8.5-7.65-14.167-7.65H206.833c-9.35 0-17 7.65-17 17s7.65 17 17 17H416.5l-62.9 144.5H164.333L94.917 33.698c-1.983-7.367-8.783-12.467-16.433-12.467H17c-9.35 0-17 7.65-17 17s7.65 17 17 17zm118.433 383.067c21.25 0 38.533-17.283 38.533-38.533s-17.283-38.533-38.533-38.533S96.9 378.514 96.9 399.764s17.283 38.534 38.533 38.534zm240.834 0h2.833c10.2-.85 19.55-5.383 26.35-13.317 6.8-7.65 9.917-17.567 9.35-28.05-1.417-20.967-19.833-37.117-41.083-35.7-21.25 1.417-37.117 20.117-35.7 41.083 1.416 20.117 18.133 35.984 38.25 35.984z"/>
	</symbol>
	<symbol id="comp" viewBox="0 0 470.465 470.465">
		<path d="M363.905 127.232c-78.652 0-106.56 51.124-106.56 94.904v153.191c0 43.78 27.908 94.904 106.56 94.904s106.56-51.124 106.56-94.904v-153.19c0-43.781-27.908-94.905-106.56-94.905zm91.56 248.096c0 9.209-1.77 32.705-18.162 51.934-15.822 18.56-40.517 27.971-73.398 27.971s-57.576-9.411-73.398-27.971c-16.393-19.229-18.162-42.725-18.162-51.934V222.137c0-9.209 1.77-32.705 18.162-51.934 15.822-18.56 40.517-27.971 73.398-27.971s57.576 9.411 73.398 27.971c16.393 19.229 18.162 42.725 18.162 51.934v153.191z"/><path d="M299.375 15.232c31.446 0 57.03 25.584 57.03 57.03v32.47c0 4.143 3.358 7.5 7.5 7.5s7.5-3.357 7.5-7.5v-32.47c0-39.718-32.313-72.03-72.03-72.03-39.718 0-72.03 32.141-72.03 71.647v199.705c0 31.235-25.583 56.647-57.03 56.647-31.447 0-57.03-25.584-57.03-57.03v-59.669c54.843-3.861 98.285-49.708 98.285-105.516C211.57 47.686 164.115.231 105.785.231S0 47.688 0 106.018c0 55.808 43.442 101.655 98.285 105.516v59.669c0 39.718 32.313 72.03 72.03 72.03s72.03-32.141 72.03-71.647V71.88c0-31.235 25.583-56.648 57.03-56.648zM15 106.018c0-50.06 40.726-90.785 90.785-90.785s90.785 40.726 90.785 90.785-40.726 90.785-90.785 90.785S15 156.077 15 106.018z"/><path d="M105.761 127.518a5.653 5.653 0 0 1-5.646-5.646c0-4.143-3.358-7.5-7.5-7.5s-7.5 3.357-7.5 7.5c0 8.737 5.463 16.205 13.146 19.215v3.216a7.5 7.5 0 0 0 15 .002v-3.217c7.683-3.01 13.147-10.478 13.147-19.216 0-14.463-11.777-19.988-17.437-22.644-6.915-3.244-8.808-5.192-8.808-9.063 0-3.113 2.533-5.646 5.646-5.646s5.646 2.533 5.646 5.646c0 4.143 3.358 7.5 7.5 7.5s7.5-3.357 7.5-7.5c0-8.737-5.463-16.205-13.146-19.215v-3.215a7.5 7.5 0 0 0-15-.002v3.217c-7.683 3.01-13.147 10.478-13.147 19.216 0 14.462 11.777 19.988 17.437 22.644 6.915 3.244 8.808 5.192 8.808 9.063a5.653 5.653 0 0 1-5.646 5.645z"/><path d="M181.57 106.018c0-41.788-33.997-75.785-75.785-75.785-17.287 0-34.207 6-47.642 16.896-13.23 10.727-22.563 25.729-26.28 42.241a7.5 7.5 0 0 0 5.67 8.964 7.496 7.496 0 0 0 8.964-5.669c6.187-27.484 31.121-47.433 59.288-47.433 33.517 0 60.785 27.269 60.785 60.785s-27.268 60.785-60.785 60.785c-28.167 0-53.101-19.948-59.288-47.433-.91-4.041-4.925-6.582-8.964-5.669a7.5 7.5 0 0 0-5.67 8.964c3.717 16.512 13.05 31.514 26.279 42.242 13.435 10.896 30.355 16.896 47.642 16.896 41.789.001 75.786-33.996 75.786-75.784zm189.835 185.214v-26.075c11.146-3.253 19.315-13.557 19.315-25.74v-35.598c0-12.183-8.169-22.487-19.315-25.74v-13.347c0-4.143-3.358-7.5-7.5-7.5s-7.5 3.357-7.5 7.5v13.347c-11.146 3.253-19.315 13.557-19.315 25.74v35.598c0 12.183 8.169 22.487 19.315 25.74v26.075h-61.56c-4.142 0-7.5 3.357-7.5 7.5s3.358 7.5 7.5 7.5h138.12c4.142 0 7.5-3.357 7.5-7.5s-3.358-7.5-7.5-7.5h-61.56zm-19.316-51.815v-35.598c0-6.515 5.3-11.815 11.815-11.815s11.815 5.301 11.815 11.815v35.598c0 6.515-5.3 11.815-11.815 11.815s-11.815-5.3-11.815-11.815z"/>
	</symbol>
	<symbol id="cross" viewBox="0 0 31.112 31.112">
		<path d="M31.112 1.414L29.698 0 15.556 14.142 1.414 0 0 1.414l14.142 14.142L0 29.698l1.414 1.414L15.556 16.97l14.142 14.142 1.414-1.414L16.97 15.556z"/>
	</symbol>
	<symbol id="customer" viewBox="0 0 470 470">
		<path d="M235 148.009c40.806 0 74.004-33.198 74.004-74.005C309.004 33.198 275.806 0 235 0s-74.004 33.198-74.004 74.004c0 40.807 33.198 74.005 74.004 74.005zM235 15c32.535 0 59.004 26.469 59.004 59.004S267.535 133.009 235 133.009s-59.004-26.47-59.004-59.005S202.465 15 235 15zm0 163.009c59.812 0 108.922 46.69 112.793 105.539H174.46c-4.142 0-7.5 3.357-7.5 7.5s3.358 7.5 7.5 7.5h181.08a7.5 7.5 0 0 0 7.5-7.5c0-70.601-57.438-128.039-128.04-128.039s-128.04 57.438-128.04 128.039a7.5 7.5 0 0 0 7.5 7.5h30c4.142 0 7.5-3.357 7.5-7.5s-3.358-7.5-7.5-7.5h-22.254c3.872-58.849 52.983-105.539 112.794-105.539zm-94.592 199.703l-41.143-6.905-19.281-36.995a7.5 7.5 0 0 0-13.302 0l-19.281 36.995-41.143 6.905a7.5 7.5 0 0 0-4.111 12.65l29.227 29.77-6.147 41.263a7.499 7.499 0 0 0 10.761 7.819l37.344-18.597 37.344 18.597a7.504 7.504 0 0 0 7.751-.647 7.499 7.499 0 0 0 3.01-7.173l-6.147-41.263 29.227-29.77a7.499 7.499 0 0 0-4.109-12.649zm-38.437 34.577a7.5 7.5 0 0 0-2.066 6.359l4.577 30.723-27.805-13.847a7.498 7.498 0 0 0-6.687 0l-27.806 13.847 4.577-30.723a7.496 7.496 0 0 0-2.066-6.359l-21.762-22.166 30.634-5.142a7.502 7.502 0 0 0 5.41-3.931l14.356-27.546 14.356 27.546a7.502 7.502 0 0 0 5.41 3.931l30.634 5.142-21.762 22.166zm200.104-34.577l-41.143-6.905-19.281-36.995a7.5 7.5 0 0 0-13.302 0l-19.281 36.995-41.143 6.905a7.5 7.5 0 0 0-4.111 12.65l29.227 29.77-6.146 41.263a7.499 7.499 0 0 0 10.761 7.819L235 450.617l37.344 18.597a7.504 7.504 0 0 0 7.751-.647 7.499 7.499 0 0 0 3.01-7.173l-6.146-41.263 29.227-29.77a7.499 7.499 0 0 0-4.111-12.649zm-38.437 34.577a7.5 7.5 0 0 0-2.066 6.359l4.576 30.723-27.805-13.847a7.5 7.5 0 0 0-6.686 0l-27.805 13.847 4.576-30.723a7.496 7.496 0 0 0-2.066-6.359L184.6 390.123l30.634-5.142a7.502 7.502 0 0 0 5.41-3.931L235 353.505l14.356 27.546a7.502 7.502 0 0 0 5.41 3.931l30.634 5.142-21.762 22.165zm205.995-29.498a7.5 7.5 0 0 0-5.892-5.079l-41.143-6.905-19.281-36.995a7.5 7.5 0 0 0-13.302 0l-19.281 36.995-41.143 6.905a7.5 7.5 0 0 0-4.111 12.65l29.227 29.77-6.147 41.263a7.499 7.499 0 0 0 10.761 7.819l37.344-18.597 37.344 18.597a7.504 7.504 0 0 0 7.751-.647 7.499 7.499 0 0 0 3.01-7.173l-6.147-41.263 29.227-29.77a7.493 7.493 0 0 0 1.783-7.57zm-44.328 29.498a7.5 7.5 0 0 0-2.066 6.359l4.577 30.723-27.806-13.847a7.5 7.5 0 0 0-6.686 0l-27.805 13.847 4.577-30.723a7.496 7.496 0 0 0-2.066-6.359l-21.762-22.166 30.634-5.142a7.502 7.502 0 0 0 5.41-3.931l14.356-27.546 14.356 27.546a7.502 7.502 0 0 0 5.41 3.931l30.634 5.142-21.763 22.166z"/><path d="M235 108.009c9.831 0 19.184-4.272 25.66-11.721a7.5 7.5 0 0 0-11.32-9.842c-3.625 4.171-8.853 6.563-14.34 6.563s-10.714-2.392-14.34-6.563a7.5 7.5 0 0 0-11.32 9.842c6.476 7.448 15.829 11.721 25.66 11.721z"/>
	</symbol>
	<symbol id="down" viewBox="0 0 59.414 59.414">
		<path d="M29.707 45.268L0 15.561l1.414-1.415 28.293 28.293L58 14.146l1.414 1.415z"/>
	</symbol>
	<symbol id="exclame" viewBox="0 0 612.816 612.816">
		<path d="M306.408 0C137.368 0 .371 136.997.371 306.037s136.997 306.779 306.037 306.779 306.037-137.813 306.037-306.037C612.445 137.739 475.448 0 306.408 0zm0 583.147c-152.203 0-276.368-124.165-276.368-276.368S154.205 29.595 306.408 29.595 582.776 153.76 582.776 306.779 458.611 583.147 306.408 583.147zm15.205-151.387c0 8.827-7.195 16.021-16.021 16.021-8.827 0-16.021-7.195-16.021-16.021 0-8.827 7.195-16.021 16.021-16.021s16.021 7.195 16.021 16.021zm-31.226-78.549v-180.24c0-8.011 6.379-14.39 14.39-14.39 8.011 0 14.39 6.379 14.39 14.39v180.24c0 8.011-6.379 14.39-14.39 14.39-8.011.89-14.39-6.379-14.39-14.39z"/>
	</symbol>
	<symbol id="face" viewBox="0 0 512.001 512.001">
		<path d="M437.02 74.981C388.668 26.628 324.38 0 256.001 0c-67.98 0-132.951 26.912-181.02 74.981C26.629 123.333.001 187.621.001 256c0 53.306 16.227 104.399 46.926 147.757 30.02 42.398 71.526 74.321 120.03 92.318a8.098 8.098 0 0 0 9.267-2.703c1.111-1.452 1.63-3.274 1.63-5.102V342.232a8.084 8.084 0 0 0-8.084-8.084h-67.368v-59.284h67.368a8.084 8.084 0 0 0 8.084-8.084V256c0-70.34 66.739-132.042 142.821-132.042h35.032v59.284h-35.032c-22.814 0-43.559 6.567-58.413 18.489-16.436 13.192-25.124 31.958-25.124 54.269v10.779a8.084 8.084 0 0 0 8.084 8.084h31.872a8.084 8.084 0 0 0 0-16.168h-23.788V256c0-41.768 36.291-56.589 67.368-56.589h43.116a8.084 8.084 0 0 0 8.084-8.084v-75.453a8.084 8.084 0 0 0-8.084-8.084h-43.116c-39.518 0-79.573 15.72-109.895 43.129-31.659 28.619-49.095 65.937-49.095 105.082v2.695H94.316a8.084 8.084 0 0 0-8.084 8.084v75.453a8.084 8.084 0 0 0 8.084 8.084h67.368v126.248C74.182 439.076 16.169 351.887 16.169 256c0-132.244 107.588-239.832 239.83-239.832 132.098 0 239.833 107.734 239.833 239.833 0 132.243-107.588 239.83-239.832 239.83-.885 0-1.782-.005-2.695-.017V350.316H363.79a8.084 8.084 0 0 0 8.084-8.084v-75.453a8.084 8.084 0 0 0-8.084-8.084h-47.317a8.084 8.084 0 0 0 0 16.168h39.233v59.284H245.222a8.084 8.084 0 0 0-8.084 8.084v161.437c0 4.325 3.408 7.891 7.729 8.077 4.005.171 7.648.255 11.135.255 68.379 0 132.667-26.628 181.019-74.981 48.069-48.07 74.981-113.04 74.981-181.021-.001-68.377-26.63-132.665-74.982-181.017z"/>
	</symbol>
	<symbol id="fb" viewBox="0 0 512 512">
		<path d="M134.941 272.691h56.123v231.051a8.256 8.256 0 0 0 8.258 8.258h95.159a8.256 8.256 0 0 0 8.258-8.258V273.78h64.519a8.26 8.26 0 0 0 8.204-7.315l9.799-85.061a8.259 8.259 0 0 0-8.202-9.203h-74.316V118.88c0-16.073 8.654-24.224 25.726-24.224h48.59a8.258 8.258 0 0 0 8.258-8.258V8.319a8.256 8.256 0 0 0-8.258-8.258h-66.965A65.863 65.863 0 0 0 307.027 0c-11.619 0-52.006 2.281-83.909 31.63-35.348 32.524-30.434 71.465-29.26 78.217v62.352H134.94a8.256 8.256 0 0 0-8.258 8.258v83.975a8.26 8.26 0 0 0 8.259 8.259z"/>
	</symbol>
	<symbol id="filter" viewBox="0 0 368.167 368.167">
		<path d="M248.084 96.684h12c4.4 0 8-3.6 8-8s-3.6-8-8-8h-12c-4.4 0-8 3.6-8 8s3.6 8 8 8z"/><path d="M366.484 25.484c-2.8-5.6-8.4-8.8-14.4-8.8h-336c-6 0-11.6 3.6-14.4 8.8-2.8 5.6-2 12 1.6 16.8l141.2 177.6v115.6c0 6 3.2 11.2 8.4 14 2.4 1.2 4.8 2 7.6 2 3.2 0 6.4-.8 9.2-2.8l44.4-30.8c6.4-4.8 10-12 10-19.6v-78.8l140.8-177.2c3.6-4.8 4.4-11.2 1.6-16.8zm-156.8 186.4c-.8 1.2-1.6 2.8-1.6 4.8v81.2c0 2.8-1.2 5.2-3.2 6.8l-44.4 30.8v-118.8c0-2.8-1.2-5.2-3.2-6.4l-90.4-113.6h145.2c4.4 0 8-3.6 8-8s-3.6-8-8-8h-157.6l-38.4-48h336l-142.4 179.2z"/>
	</symbol>
	<symbol id="google" viewBox="0 0 512 512">
		<path d="M437.019 74.981C388.667 26.628 324.379 0 256 0S123.333 26.628 74.982 74.981C26.628 123.333 0 187.621 0 256s26.628 132.667 74.982 181.019C123.333 485.372 187.621 512 256 512s132.667-26.628 181.019-74.981S512 324.379 512 256s-26.628-132.667-74.981-181.019zM256 495.832C123.756 495.832 16.168 388.244 16.168 256S123.756 16.168 256 16.168 495.832 123.756 495.832 256 388.244 495.832 256 495.832z"/><path d="M349.613 237.646c-.942-.363-1.956-.509-2.966-.509H223.663a8.084 8.084 0 0 0-8.084 8.084v53.895a8.084 8.084 0 0 0 8.084 8.084h51.182c-16.49 23.528-43.275 37.698-72.653 37.726h-.083c-47.216 0-87.072-38.317-88.864-85.45-.693-18.237 4.052-35.738 13.529-50.748 2.003-3.173 1.558-7.305-1.096-9.958l-.115-.115c-3.616-3.616-9.684-2.99-12.421 1.331-11.253 17.77-16.873 38.507-16.052 60.105 1.033 27.187 12.492 52.619 32.267 71.61 19.739 18.957 45.571 29.394 72.749 29.394h.101c40.138-.039 76.178-22.408 94.057-58.381 1.622-3.261.898-7.31-2.062-9.816-1.491-1.262-3.432-1.866-5.385-1.866h-57.069v-37.726h106.934l-.002 7.677c-.026 74.458-59.935 136.278-133.547 137.808a138.56 138.56 0 0 1-3.028.031c-77.738 0-141.802-63.222-142.809-140.931-.495-38.215 14.087-74.386 41.06-101.848 26.954-27.445 62.825-42.666 101.006-42.86l.735-.002c32.628 0 63.994 11.059 89.28 31.337l-26.9 26.901a105.131 105.131 0 0 0-62.371-20.511c-21.674 0-42.25 6.472-59.628 18.511-4.102 2.842-4.606 8.723-1.077 12.252l.114.114c2.748 2.748 7.057 3.109 10.253.9 14.68-10.144 32.042-15.608 50.338-15.608a88.933 88.933 0 0 1 57.74 21.3 8.086 8.086 0 0 0 10.97-.429L309 149.761c2.299-2.3 3.065-5.838 1.667-9.032-.466-1.064-1.201-1.993-2.063-2.771-29.269-26.426-67.057-40.947-106.507-40.947l-.818.002c-42.523.217-82.462 17.157-112.46 47.699-30.016 30.562-46.242 70.83-45.691 113.387.544 42.027 17.323 81.451 47.245 111.01 29.949 29.587 69.629 45.881 111.731 45.881 1.124 0 2.246-.012 3.364-.034 40.182-.835 77.802-17.334 105.928-46.457 28.004-28.995 43.435-67.177 43.45-107.51l.005-15.764c.003-3.258-1.962-6.314-5.238-7.579z"/><path d="M450.021 150.905h-24.253v-24.253a8.084 8.084 0 0 0-8.084-8.084h-43.116a8.084 8.084 0 0 0-8.084 8.084v24.253h-24.253a8.084 8.084 0 0 0-8.084 8.084v43.116a8.084 8.084 0 0 0 8.084 8.084h24.253v24.253a8.084 8.084 0 0 0 8.084 8.084h43.116a8.084 8.084 0 0 0 8.084-8.084v-24.253h24.253a8.084 8.084 0 0 0 8.084-8.084v-43.116a8.084 8.084 0 0 0-8.084-8.084zm-8.084 43.116h-24.253a8.084 8.084 0 0 0-8.084 8.084v24.253h-26.947v-24.253a8.084 8.084 0 0 0-8.084-8.084h-24.253v-26.947h24.253a8.084 8.084 0 0 0 8.084-8.084v-24.253H409.6v24.253a8.084 8.084 0 0 0 8.084 8.084h24.253v26.947z"/>
	</symbol>
	<symbol id="hand" viewBox="0 0 16 16">
		<path d="M16 7.1C16 5.6 14.6 5 13.8 5h-2.2c.4-1 .7-2.2.5-3.1C11.6.1 10.1 0 9.6 0h-.1c-.4 0-.6.2-.8.5l-1 2.8L5 6H0v9h5v-1c.2 0 .7.3 1.2.6 1.2.6 2.9 1.5 4.5 1.5 2.4 0 3.2-.3 3.8-1.3.3-.6.3-1.1.3-1.4.2-.2.5-.5.6-1s.1-.8 0-1.1c.2-.3.4-.7.5-1.3 0-.5-.1-.9-.2-1.2.1-.4.3-.9.3-1.7zM2.5 13.5c-.6 0-1-.4-1-1s.4-1 1-1 1 .4 1 1-.4 1-1 1zm12.2-4.4s.2.2.2.7c0 .6-.4.9-.4.9l-.3.3.2.3s.2.3 0 .7c-.1.4-.5.7-.5.7l-.3.3.2.4s.2.4-.1.9c-.2.4-.4.7-2.9.7-1.4 0-3-.8-4.1-1.4-.8-.4-1.3-.6-1.7-.6V7h.1c.2 0 .4-.1.6-.2L8.5 4c.1-.1.1-.2.2-.3l1-2.7c.5 0 1.2.2 1.4 1.1.1.6-.1 1.6-.6 2.8-.1.3-.1.5.1.8.1.2.4.3.7.3h2.5c.1 0 1.2.2 1.2 1.1 0 .8-.3 1.2-.3 1.2l-.3.4.3.4z"/>
	</symbol>
	<symbol id="icon1" viewBox="0 0 497.984 497.984">
		<path d="M378.56 497.984L392.552 456h-200.8c-16.96 0-30.76-13.8-30.76-30.76V320h16v105.24c0 8.144 6.616 14.76 14.76 14.76H414.76l-7.336 22.016L444.112 440h22.128c8.136 0 14.752-6.616 14.752-14.76V294.76c0-8.144-6.616-14.76-14.76-14.76h-169.24v-16h169.24c16.96 0 30.76 13.8 30.76 30.76v130.488c0 16.952-13.8 30.752-30.76 30.752h-17.688l-69.984 41.984z"/><path d="M184.992 184h120v113.24c0 16.96-13.8 30.76-30.76 30.76h-9.24l16 40-72-40H31.752c-16.96 0-30.76-13.8-30.76-30.76V166.76c0-16.96 13.8-30.76 30.76-30.76h137.24v32l16 16z"/><path d="M378.56 233.984L392.552 192h-200.8c-16.96 0-30.76-13.8-30.76-30.76V30.76c0-16.96 13.8-30.76 30.76-30.76H466.24c16.952 0 30.752 13.8 30.752 30.76v130.488c0 16.952-13.8 30.752-30.76 30.752h-17.688l-69.984 41.984zM191.752 16c-8.144 0-14.76 6.616-14.76 14.76v130.488c0 8.136 6.616 14.752 14.76 14.752H414.76l-7.336 22.016L444.112 176h22.128c8.136 0 14.752-6.616 14.752-14.76V30.76c0-8.144-6.616-14.76-14.76-14.76h-274.48z"/><path d="M200.992 48h256v16h-256zm0 40h256v16h-256zm0 40h216v16h-216zm240 0h16v16h-16zm-400 56h104v16h-104zm0 40h224v16h-224zm0 40h184v16h-184zm208 0h16v16h-16zm80 48h128v16h-128zm-24 40h152v16h-152zm-104 40h216v16h-216zm240 0h16v16h-16z"/>
	</symbol>
	<symbol id="icon2" viewBox="0 0 64 64">
		<path d="M63.759 31.645l-7.035-8.207 7.035-8.207a.997.997 0 0 0-.274-1.524L40.71 1.054a1 1 0 0 0-1.19.164l-6.917 6.858-6.855-6.855a1 1 0 0 0-1.208-.158L.5 14.981a1.001 1.001 0 0 0-.15 1.624l8.146 6.982-7.03 9.374a.997.997 0 0 0 .315 1.474l7.003 3.89a.977.977 0 0 0-.06.297v9.25a3.45 3.45 0 0 0 1.717 2.976l20.35 11.748a3.557 3.557 0 0 0 1.775.474l.018-.001c.006 0 .01.003.016.003.01 0 .02-.006.03-.006a3.556 3.556 0 0 0 1.713-.47L54.63 50.883a3.573 3.573 0 0 0 1.778-3.082V37.496l7.114-4.347a1 1 0 0 0 .237-1.504zm-32.16 2.729L11.843 23.397 31.6 11.323v23.05zm2-23.091l19.824 12.114L33.6 34.411V11.283zm6.797-8.115L61.443 14.86l-6.24 7.28-21-12.833 6.193-6.14zm-15.519.01l6.15 6.15-21.07 12.879-7.234-6.2 22.154-12.83zM10.134 24.735l20.968 11.65-6.341 8.529L3.754 33.243l6.38-8.508zm1.308 24.382a1.444 1.444 0 0 1-.717-1.244v-8.47l13.83 7.684a1 1 0 0 0 1.288-.277l5.757-7.742v21.686L11.442 49.117zM54.408 47.8c0 .555-.299 1.073-.779 1.35l-20.03 11.565v-21.67l5.826 7.767a.999.999 0 0 0 1.321.254l13.662-8.349V47.8zM40.48 44.886l-6.36-8.477 21.06-11.7 6.297 7.345L40.48 44.886z"/>
	</symbol>
	<symbol id="icon3" viewBox="0 0 496 496">
		<path d="M160 120h176v96H160z"/><path d="M496 192v-40h-80v-24h16V88h-56V64h16V24H104v40h16v24H64v40h16v24H0v40h16v264H0v16h496v-16h-16V192h16zm-16-24v8h-64v-8h64zm-64-64v8h-40v-8h40zM120 40h256v8H120v-8zm16 24h224v248H136V64zm-56 40h40v8H80v-8zm-64 64h64v8H16v-8zm16 24h48v264H32V192zm64 264V128h24v328H96zm232 0h-72v-96h72v96zm-88 0h-72v-96h72v96zm104 0V344H152v112h-16V328h224v128h-16zm32-328h24v328h-24V128zm88 328h-48V192h48v264z"/><path d="M184 144h128v16H184zm112 32h16v16h-16zm-112 0h96v16h-96zm32 208h16v40h-16zm48 0h16v40h-16z"/>
	</symbol>
	<symbol id="icon4" viewBox="0 0 60 60">
		<path d="M55.517 46.55l-9.773-4.233c-.23-.115-.485-.396-.704-.771l6.525-.005c.114.011 2.804.257 4.961-.67a2.94 2.94 0 0 0 1.669-1.907 2.967 2.967 0 0 0-.426-2.523c-1.865-2.654-6.218-9.589-6.354-16.623-.003-.121-.397-12.083-12.21-12.18-1.739.014-3.347.309-4.81.853a8.316 8.316 0 0 0-1.488-2.459C30.854 3.688 27.521 2.5 23 2.5s-7.854 1.188-9.908 3.53c-2.368 2.701-2.148 5.976-2.092 6.525v5.319c-.64.729-1 1.662-1 2.625v4c0 1.217.553 2.352 1.497 3.109.916 3.627 2.833 6.36 3.503 7.237v3.309c0 .968-.528 1.856-1.377 2.32L4.702 45.34A9.02 9.02 0 0 0 0 53.262V57.5h60v-3.697a8.065 8.065 0 0 0-4.483-7.253zM44 55.5H2v-2.238a7.016 7.016 0 0 1 3.659-6.164l8.921-4.866A4.644 4.644 0 0 0 17 38.155v-4.019l-.233-.278c-.024-.029-2.475-2.994-3.41-7.065l-.091-.396-.341-.22A1.995 1.995 0 0 1 12 24.5v-4c0-.561.238-1.084.67-1.475l.33-.297V12.5l-.009-.131c-.003-.027-.343-2.799 1.605-5.021C16.253 5.458 19.081 4.5 23 4.5c3.905 0 6.727.951 8.386 2.828.825.932 1.24 1.973 1.447 2.867l.045.208c.014.071.029.142.04.21a12.777 12.777 0 0 1 .057.384c.015.124.027.244.035.355l.001.026a9.417 9.417 0 0 1 .016.354c.002.083.002.162.001.231v.03c-.004.235-.02.375-.02.378L33 18.728l.33.298c.432.39.67.913.67 1.474v4c0 .873-.572 1.637-1.422 1.899l-.498.153-.16.495a20.934 20.934 0 0 1-2.834 5.713c-.297.421-.586.794-.837 1.079l-.249.284v4.125c0 .253.025.501.064.745.008.052.022.102.032.154a4.692 4.692 0 0 0 .203.723c.078.209.169.411.275.605l.035.067c.145.256.312.499.504.723l.228.281h.039c.343.338.737.632 1.185.856l9.553 4.776A6.979 6.979 0 0 1 44 53.457V55.5zm14 0H46v-2.043a8.972 8.972 0 0 0-4.986-8.068l-6.858-3.43c.169-.386.191-.828.043-1.254a1.706 1.706 0 0 0-1.63-1.16h-2.217c-.046-.081-.076-.17-.113-.256-.05-.115-.109-.228-.142-.349a2.61 2.61 0 0 1-.097-.692v-3.381c.229-.28.47-.599.719-.951a22.886 22.886 0 0 0 2.954-5.799A3.968 3.968 0 0 0 36 24.5v-4c0-.963-.36-1.896-1-2.625v-5.319a8.799 8.799 0 0 0-.084-2.139c1.288-.506 2.731-.767 4.29-.78 9.841.081 10.2 9.811 10.21 10.221.147 7.583 4.746 14.927 6.717 17.732a.97.97 0 0 1 .139.827.934.934 0 0 1-.535.615c-1.68.723-3.959.518-4.076.513h-6.883c-.643 0-1.229.327-1.568.874a1.823 1.823 0 0 0-.086 1.783c.313.631.866 1.474 1.775 1.927l9.747 4.222A6.074 6.074 0 0 1 58 53.803V55.5z"/>
	</symbol>
	<symbol id="instagram" viewBox="0 0 512 512">
		<path d="M437.019 74.981C388.667 26.628 324.379 0 256 0S123.333 26.628 74.981 74.981C26.628 123.333 0 187.621 0 256s26.628 132.667 74.981 181.019C123.333 485.372 187.621 512 256 512s132.667-26.628 181.019-74.981S512 324.379 512 256s-26.628-132.667-74.981-181.019zM256 495.832C123.756 495.832 16.168 388.244 16.168 256S123.756 16.168 256 16.168 495.832 123.756 495.832 256 388.244 495.832 256 495.832z"/><path d="M347.845 97.011h-183.69c-37.024 0-67.144 30.121-67.144 67.144v183.692c0 37.022 30.121 67.143 67.144 67.143h183.692c37.022 0 67.143-30.121 67.143-67.144V164.155c-.001-37.024-30.121-67.144-67.145-67.144zm50.976 250.834c0 28.108-22.868 50.976-50.976 50.976h-183.69c-28.108 0-50.976-22.868-50.976-50.976v-183.69c0-28.108 22.868-50.976 50.976-50.976h183.692c28.107 0 50.975 22.868 50.975 50.976v183.69z"/><path d="M339.402 251.22c-2.391-42.533-37.002-76.75-79.558-78.669-49.108-2.214-89.535 38.232-87.292 87.346 1.945 42.56 36.19 77.154 78.728 79.51 17.951.995 34.762-3.727 48.803-12.494 4.374-2.731 5.087-8.814 1.441-12.459l-.115-.115c-2.657-2.658-6.778-3.059-9.971-1.075a66.948 66.948 0 0 1-36.158 10.102c-37.455-.394-67.676-31.844-66.621-69.286 1.061-37.681 33.215-67.721 71.657-65.312 33.126 2.076 60.09 28.49 62.819 61.569 1.111 13.475-1.787 26.206-7.61 37.157-1.667 3.136-1.153 6.982 1.358 9.493l.124.124c3.773 3.773 10.154 2.886 12.675-1.816 6.982-13.026 10.619-28.098 9.72-44.075z"/><circle cx="342.232" cy="158.989" r="21.558"/>
	</symbol>
	<symbol id="left" viewBox="0 0 59.414 59.414">
		<path d="M43.854 59.414L14.146 29.707 43.854 0l1.414 1.414-28.293 28.293L45.268 58z"/>
	</symbol>
	<symbol id="loader" viewBox="0 0 512 512">
		<path d="M248.163 0h15.673v143.997h-15.673zm0 368.003h15.673V512h-15.673zM171.259 182.34L69.439 80.522 80.521 69.44l101.82 101.82zm260.216 260.218l-101.82-101.82 11.083-11.082 101.82 101.82zM0 248.163h143.997v15.673H0zm368.003 0H512v15.673H368.003zM80.506 442.55l-11.083-11.082 101.82-101.82 11.082 11.083zm260.232-260.206l-11.082-11.083 101.82-101.82 11.082 11.083zm-92.742 65.819h16.001v15.673h-16.001zm-31.995 0h16.001v15.673h-16.001zm64 0h16.001v15.673h-16.001z"/>
	</symbol>
	<symbol id="marker" viewBox="0 0 512 512">
		<path d="M256 0C154.734 0 72.348 82.386 72.348 183.652c0 34.826 9.837 68.755 28.456 98.109l141.098 222.484c3.06 4.831 8.38 7.755 14.098 7.755s11.038-2.924 14.098-7.756L411.196 281.76c18.619-29.353 28.456-63.282 28.456-98.108C439.652 82.386 357.266 0 256 0zm0 283.826c-55.234 0-100.174-44.94-100.174-100.174 0-55.234 44.94-100.174 100.174-100.174s100.174 44.94 100.174 100.174c0 55.234-44.94 100.174-100.174 100.174z"/>
	</symbol>
	<symbol id="power" viewBox="0 0 649.92 649.92">
		<path d="M324.964 225.574c15.364 0 28.113-12.749 28.113-28.114V28.114C353.077 12.749 340.328 0 324.964 0c-15.693 0-28.114 12.421-28.114 28.114V197.46c0 15.693 12.421 28.114 28.114 28.114z"/><path d="M579.963 175.233c-34-51.332-79.334-89.51-136.002-113.119-10.029-4.178-20.595.656-24.515 10.134-3.927 9.485.355 20.854 9.806 24.85 50.049 21.174 89.573 54.268 119.326 99.058 29.753 44.783 44.79 94.155 44.79 148.095 0 36.288-7.198 71.266-21.252 104.289-14.061 33.017-33.345 61.787-57.211 85.653s-52.636 43.15-85.653 57.211c-33.023 14.054-68.001 21.251-104.288 21.251-36.289 0-71.272-7.197-104.289-21.251-33.017-14.061-61.787-33.345-85.653-57.211-23.866-23.867-43.158-52.637-57.211-85.653-14.06-33.023-21.251-68.001-21.251-104.289 0-53.292 14.381-102.329 43.479-147.118 29.098-44.79 68.266-78.281 117.038-99.386 9.416-4.073 14.465-14.89 10.134-24.187-4.505-9.681-15.441-14.249-24.843-10.134-55.664 24.333-100.043 62.442-133.388 113.439S18.96 283.769 18.96 344.251c0 41.52 8.035 81.134 24.194 118.67 16.208 37.655 38.332 70.205 65.385 97.427 27.214 27.381 59.799 49.421 97.426 65.385 37.892 16.076 77.479 24.188 118.998 24.188 41.519 0 81.05-8.229 118.67-24.188 37.898-16.083 70.532-38.004 97.754-65.385 27.054-27.222 48.897-59.89 65.057-97.427 16.209-37.654 24.516-77.15 24.516-118.67 0-61.465-16.997-117.693-50.997-169.018z"/>
	</symbol>
	<symbol id="right" viewBox="0 0 59.414 59.414">
		<path d="M15.561 59.414L14.146 58l28.293-28.293L14.146 1.414 15.561 0l29.707 29.707z"/>
	</symbol>
	<symbol id="ru" viewBox="0 0 124.099 124.1">
		<path d="M18.25 106.7c5.6 5.399 12.3 9.8 20.1 12.8 7.8 3 16.5 4.6 25.9 4.6 10.5 0 20.2-1.6 28.9-4.899 7.9-2.9 1.1-17.601-4.7-15.2-6.399 2.7-14.2 4.1-23.101 4.1-7 0-13.399-1.1-19-3.199-5.6-2.101-10.5-5.101-14.5-9-4-3.9-7.2-8.7-9.4-14.2-2.3-5.601-3.4-12-3.4-19 0-6.6 1.1-12.9 3.3-18.5 2.2-5.6 5.2-10.6 9.2-14.6 3.9-4.1 8.7-7.4 14.2-9.7 5.5-2.3 11.7-3.5 18.5-3.5 6.301 0 12.1.9 17.301 2.5 5.1 1.6 9.5 4.1 13.199 7.4 3.7 3.3 6.6 7.3 8.7 12.1 2.101 4.8 3.101 10.4 3.101 16.8 0 3.7-.4 7.2-1.201 10.5-.799 3.1-1.799 5.899-3.199 8.1-1.301 2.101-2.801 3.8-4.6 5-2.101 1.4-5.201 2.2-7.601 1.4-3-1-2.399-5.2-2.2-7.7.301-3.4 1.2-6.6 1.9-9.9 1.1-5.4 2.3-10.7 3.4-16 .6-2.9 1.299-5.9 1.899-8.8.8-3.7-2-7.3-5.899-7.3h-4.4c-2.7 0-5.1 1.8-5.801 4.4-.299 1.2-.6 2.2-.6 2.2-2.199-6.8-10.3-8.7-16.7-8.6-8.4.1-16.1 4.4-21.7 10.5-.5.6-1.1 1.2-1.6 1.8-2.9 3.5-5.1 7.6-6.6 11.9-1.6 4.6-2.4 9.3-2.4 14.1 0 4.101.6 8 1.7 11.5 1.2 3.601 2.9 6.7 5.1 9.3 2.2 2.601 5 4.7 8.3 6.2 3.3 1.5 7 2.3 11 2.3 3 0 5.8-.5 8.3-1.399 2.4-.9 4.6-2 6.5-3.3 1.5-1 2.9-2.2 4-3.301.699 1.301 1.5 2.4 2.6 3.5 2.801 3 7.1 4.5 12.801 4.5 4.5 0 8.899-.899 13-2.699 4.1-1.801 7.799-4.601 10.899-8.2 3-3.601 5.5-8 7.3-13.2 1.801-5.2 2.7-11.2 2.7-17.8 0-9-1.7-17-5-23.7s-7.8-12.4-13.399-16.9c-5.5-4.5-11.9-7.8-19-10.1C79.05 1.1 71.75 0 64.25 0c-8.7 0-17 1.6-24.7 4.7-7.7 3.2-14.5 7.6-20.2 13.1-5.8 5.5-10.4 12.2-13.7 19.7-3.3 7.5-5 15.9-5 24.7 0 8.899 1.5 17.3 4.6 24.8 3 7.6 7.4 14.2 13 19.7zm54.099-42c-.699 2.7-1.699 5.3-3.1 7.7-1.4 2.3-3.1 4.199-5.3 5.699-2 1.4-4.4 2.101-7.4 2.101-1.9 0-3.4-.4-4.5-1.101-1.2-.8-2.2-1.8-2.9-3.1-.8-1.4-1.3-2.9-1.6-4.4-.3-1.6-.5-3.1-.5-4.399 0-2.8.4-5.6 1.2-8.5.8-2.8 1.9-5.4 3.4-7.6 1.5-2.2 3.2-4 5.3-5.4 1.9-1.3 4-1.9 6.5-1.9 2 0 3.601.3 4.8 1 1.2.7 2.2 1.6 2.9 2.7.8 1.2 1.3 2.6 1.699 4.1.4 1.7.601 3.5.601 5.2-.1 2.5-.399 5.1-1.1 7.9z"/>
	</symbol>
	<symbol id="rub" viewBox="0 0 512 512">
		<path d="M288 320c88.359 0 160-71.633 160-160S376.359 0 288 0H117.328c-5.891 0-10.656 4.773-10.656 10.664v287.992h-32c-5.891 0-10.672 4.781-10.672 10.688C64 315.219 68.781 320 74.672 320h32v42.656h-32c-5.891 0-10.672 4.781-10.672 10.688C64 379.219 68.781 384 74.672 384h32v117.344c0 5.875 4.766 10.656 10.656 10.656S128 507.219 128 501.344V384h181.328c5.891 0 10.672-4.781 10.672-10.656 0-5.906-4.781-10.688-10.672-10.688H128V320h160zM128 21.336h160c18.734 0 36.891 3.664 53.969 10.883 16.516 6.984 31.344 16.984 44.078 29.727 12.75 12.742 22.75 27.578 29.734 44.086C423 123.109 426.672 141.273 426.672 160s-3.672 36.891-10.891 53.969c-6.984 16.508-16.984 31.344-29.734 44.086-12.734 12.742-27.562 22.742-44.078 29.727C324.891 295 306.734 298.656 288 298.656H128V21.336z"/>
	</symbol>
	<symbol id="search" viewBox="0 0 52.966 52.966">
		<path d="M51.704 51.273L36.845 35.82c3.79-3.801 6.138-9.041 6.138-14.82 0-11.58-9.42-21-21-21s-21 9.42-21 21 9.42 21 21 21c5.083 0 9.748-1.817 13.384-4.832l14.895 15.491a.998.998 0 0 0 1.414.028 1 1 0 0 0 .028-1.414zM21.983 40c-10.477 0-19-8.523-19-19s8.523-19 19-19 19 8.523 19 19-8.524 19-19 19z"/>
	</symbol>
	<symbol id="sh" viewBox="0 0 474.9 474.9">
		<path d="M382.654 128.5c24 0 43.5-19.5 43.5-43.5s-19.5-43.5-43.5-43.5-43.5 19.5-43.5 43.5 19.5 43.5 43.5 43.5zm0-72c15.7 0 28.5 12.8 28.5 28.5s-12.8 28.5-28.5 28.5-28.5-12.8-28.5-28.5 12.8-28.5 28.5-28.5zm-115.3 78.4l-61.7 55.8-6.9-7.7c-2.8-3.1-7.5-3.3-10.6-.5-3.1 2.8-3.3 7.5-.5 10.6l6.9 7.7-9.6 8.7-6.9-7.7c-2.8-3.1-7.5-3.3-10.6-.5-3.1 2.8-3.3 7.5-.5 10.6l6.9 7.7-29 26.1c-3.1 2.8-3.3 7.5-.5 10.6s7.5 3.3 10.6.5l29-26.1 31.9 35.3c2.8 3.1 7.5 3.3 10.6.5 3.1-2.8 3.3-7.5.5-10.6l-31.9-35.3 9.6-8.7 16.8 18.6c18.6 20.5 51.1 21.5 72.6 2.1s24.1-51.4 6-72.8l-.2-.2-21.9-24.2c-2.8-3.1-7.5-3.3-10.6-.5zm21.3 34.7c12.8 15.2 10.7 37.9-4.7 51.8-15.3 13.8-38.4 13.4-51.4-1l-16.8-18.6 56.2-50.7 16.7 18.5z"/><path d="M459.954 0h-186.4c-1.8 0-3.5.6-4.9 1.8l-258.6 222.6c-1.6 1.3-2.5 3.3-2.6 5.4s.7 4.1 2.2 5.6l186.4 183.1c1.5 1.4 3.4 2.1 5.3 2.1 1.7 0 3.5-.6 4.9-1.7l258.6-221.9c1.6-1.4 2.6-3.5 2.6-5.7V7.5c0-4.1-3.4-7.5-7.5-7.5zm-7.4 187.8l-250.8 215.1-175.7-172.5 250.4-215.5h176.1v172.9z"/><path d="M455.054 239.9l-253.3 217.3-181.5-181.3c-2.9-2.9-7.7-2.9-10.6 0-2.9 2.9-2.9 7.7 0 10.6l186.4 186.2c1.5 1.5 3.4 2.2 5.3 2.2 1.7 0 3.5-.6 4.9-1.7l258.6-221.9c3.1-2.7 3.5-7.5.8-10.6s-7.5-3.5-10.6-.8z"/>
	</symbol>
	<symbol id="shoping" viewBox="0 0 490.1 490.1">
		<path d="M211.7 457.75c0-5.5-4.4-9.9-9.9-9.9H63.7c-24.2 0-43.8-19.7-43.8-43.8v-285.5h60v37.3c0 5.5 4.4 9.9 9.9 9.9s9.9-4.4 9.9-9.9v-37.3H219v37.3c0 5.5 4.4 9.9 9.9 9.9s9.9-4.4 9.9-9.9v-37.3h60v19.5c0 5.5 4.4 9.9 9.9 9.9s9.9-4.4 9.9-9.9v-29.4c0-5.5-4.4-9.9-9.9-9.9h-70c-1.7-42.3-36.6-76.3-79.4-76.3s-77.7 33.9-79.4 76.3h-70c-5.5 0-9.9 4.4-9.9 9.9v295.4c0 35.1 28.5 63.6 63.6 63.6h138.1c5.6 0 10-4.5 10-9.9zm-52.4-415.5c31.8 0 57.9 25.1 59.6 56.5H99.7c1.7-31.4 27.8-56.5 59.6-56.5z"/><path d="M295.8 221.75v11.3h-54.5c-5.5 0-9.9 4.4-9.9 9.9v173.7c0 28.1 22.8 50.9 50.9 50.9h156.9c28.1 0 50.9-22.8 50.9-50.9v-173.7c0-5.5-4.4-9.9-9.9-9.9h-54.5v-11.3c0-35.8-29.1-65-65-65-35.8.1-64.9 29.2-64.9 65zm120 65.6c5.5 0 9.9-4.4 9.9-9.9v-24.6h44.6v163.8c0 17.2-14 31.1-31.1 31.1H282.3c-17.2 0-31.1-14-31.1-31.1v-163.8h44.6v24.6c0 5.5 4.4 9.9 9.9 9.9s9.9-4.4 9.9-9.9v-24.6h90.3v24.6c0 5.5 4.4 9.9 9.9 9.9zm-9.9-65.6v11.3h-90.3v-11.3c0-24.9 20.3-45.2 45.2-45.2 24.8.1 45.1 20.3 45.1 45.2z"/>
	</symbol>
	<symbol id="telegram" viewBox="0 0 512 512">
		<path d="M437.019 74.981C388.667 26.628 324.379 0 256 0S123.333 26.628 74.981 74.981C26.628 123.333 0 187.621 0 256s26.628 132.667 74.981 181.019C123.333 485.372 187.621 512 256 512s132.667-26.628 181.019-74.981S512 324.379 512 256s-26.628-132.667-74.981-181.019zM256 495.832C123.756 495.832 16.168 388.244 16.168 256S123.756 16.168 256 16.168 495.832 123.756 495.832 256 388.244 495.832 256 495.832z"/><path d="M400.989 98.637a8.082 8.082 0 0 0-8.577-.722L79.822 259.599a8.086 8.086 0 0 0 .098 14.412l81.764 40.88v81.006c0 2.12.721 4.218 2.18 5.757a8.109 8.109 0 0 0 5.905 2.557 8.072 8.072 0 0 0 3.927-1.018l93.544-51.969 71.597 30.684c1.523.653 3.209.923 4.839.619a8.097 8.097 0 0 0 6.485-6.372l18.115-90.577c1-5.003-2.826-9.67-7.928-9.67a8.08 8.08 0 0 0-7.927 6.496l-16.162 80.808-66.295-28.412a8.092 8.092 0 0 0-7.111.363l-85 47.223v-72.492c0-3.062-1.73-5.86-4.469-7.231l-72.015-36.007 283.53-146.654-24.605 123.023c-1 5.003 2.826 9.67 7.928 9.67a8.088 8.088 0 0 0 7.928-6.499l27.903-139.517a8.084 8.084 0 0 0-3.064-8.042z"/><path d="M348.576 164.757a8.083 8.083 0 0 0-10.581-1.873l-140.126 86.232a8.084 8.084 0 0 0-3.847 6.885v86.232a8.082 8.082 0 0 0 15.313 3.616l31.75-63.5 106.863-106.863a8.087 8.087 0 0 0 .628-10.729zM228.725 271.842a8.094 8.094 0 0 0-1.513 2.101l-17.022 34.043v-47.468l77.636-47.777-59.101 59.101z"/>
	</symbol>
	<symbol id="time" viewBox="0 0 512 512">
		<path d="M498.946 294.959c-5.521-1.116-10.902 2.455-12.018 7.977C464.834 412.256 367.715 491.602 256 491.602c-129.911 0-235.602-105.69-235.602-235.602S126.089 20.398 256 20.398c61.287 0 120.041 23.97 163.818 66.295h-26.361c-5.633 0-10.199 4.566-10.199 10.199s4.566 10.199 10.199 10.199h51.229c5.633 0 10.199-4.566 10.199-10.199V45.664c0-5.633-4.566-10.199-10.199-10.199s-10.199 4.566-10.199 10.199v26.848C386.87 26.228 322.823 0 256 0 187.62 0 123.333 26.628 74.98 74.98 26.628 123.333 0 187.62 0 256s26.628 132.667 74.98 181.02C123.333 485.372 187.62 512 256 512c59.438 0 117.352-20.83 163.074-58.652 45.116-37.321 76.315-89.304 87.849-146.372 1.116-5.521-2.456-10.901-7.977-12.017z"/><path d="M501.801 245.801c-5.633 0-10.199 4.566-10.199 10.199 0 2.281-.033 4.585-.098 6.848-.161 5.631 4.273 10.326 9.903 10.487.1.002.198.004.297.004 5.497 0 10.031-4.376 10.19-9.907.07-2.457.106-4.957.106-7.43 0-5.635-4.566-10.201-10.199-10.201zM248.858 350.416H145.234v-20.14c0-43.204 109.147-65.293 109.147-135.134 0-35.082-27.286-62.369-64.644-62.369-34.434 0-61.07 22.739-61.07 53.924 0 9.745 3.248 13.319 9.745 13.319 7.471 0 11.369-4.548 11.369-8.771 0-25.662 16.892-38.332 39.306-38.332 29.886 0 43.854 22.414 43.854 42.88 0 56.846-109.797 80.56-109.797 134.484v31.51c0 5.198 5.847 8.446 10.07 8.446h115.644c4.223 0 7.796-4.872 7.796-10.071 0-5.198-3.573-9.746-7.796-9.746zm139.68-56.523h-17.866v-62.695c0-5.523-5.523-8.121-10.72-8.121-5.523 0-10.719 2.599-10.719 8.121v62.695h-63.669l75.039-148.127c.65-1.625.975-2.924.975-4.223 0-5.198-6.173-8.771-10.395-8.771-3.898 0-7.796 1.949-10.071 6.497l-81.535 160.797c-.974 1.625-1.299 3.573-1.299 5.523 0 4.872 2.924 8.771 8.446 8.771h82.51v47.426c0 5.522 5.198 8.446 10.719 8.446 5.198 0 10.72-2.924 10.72-8.446V314.36h17.866c4.872 0 8.121-5.198 8.121-10.395-.002-4.874-2.601-10.072-8.122-10.072z"/>
	</symbol>
	<symbol id="twitter" viewBox="0 0 512 512">
		<path d="M437.019 74.981C388.667 26.628 324.379 0 256 0S123.333 26.628 74.981 74.981C26.628 123.333 0 187.621 0 256s26.628 132.667 74.981 181.019C123.333 485.372 187.621 512 256 512s132.667-26.628 181.019-74.981S512 324.379 512 256s-26.628-132.667-74.981-181.019zM256 495.832C123.756 495.832 16.168 388.244 16.168 256S123.756 16.168 256 16.168 495.832 123.756 495.832 256 388.244 495.832 256 495.832z"/><path d="M436.352 162.391c-2.433-2.104-5.958-2.463-8.875-1.11a125.666 125.666 0 0 1-12.806 5.107 73.664 73.664 0 0 0 10.188-19.432c1.002-2.891.503-6.176-1.569-8.427a8.088 8.088 0 0 0-9.963-1.56 116.38 116.38 0 0 1-37.931 13.618c-14.958-13.729-34.201-21.24-54.643-21.24-42.313 0-77.147 32.642-80.648 74.065-8.741-1.364-25.844-6.241-29.933-7.578-29.581-10.075-56.228-27.814-77.075-51.307-1.236-1.393-2.864-2.429-4.695-2.764a8.099 8.099 0 0 0-8.745 4.339c-5.181 10.383-7.809 21.548-7.809 33.185 0 16.093 5.038 31.261 14.113 43.73-2.828-.531-5.838.462-7.812 2.89-1.135 1.396-1.703 3.168-1.77 4.966a67.49 67.49 0 0 0-.057 2.472c0 21.817 9.99 41.646 26.136 54.588a8.125 8.125 0 0 0-2.703 3.082c-.963 1.904-1.07 4.143-.434 6.178 7.052 22.559 24.572 39.739 46.292 46.781-19.673 11.976-42.429 18.434-65.679 18.434-2.053 0-4.166-.053-6.279-.156a8.098 8.098 0 0 0-8.371 6.744c-.568 3.349 1.162 6.698 4.087 8.423 29.718 17.529 63.734 26.792 98.39 26.792 41.361 0 80.758-12.881 113.607-36.725 4.052-2.942 4.499-8.821.959-12.362l-.003-.003c-2.852-2.852-7.338-3.159-10.605-.793-29.275 21.198-65.207 33.714-103.959 33.714a177.989 177.989 0 0 1-63.255-11.61c24.303-4.268 47.275-14.808 66.409-30.712 2.312-1.922 3.529-4.962 2.947-7.911a8.086 8.086 0 0 0-7.707-6.535 55.504 55.504 0 0 1-46.698-28.06 77.33 77.33 0 0 0 13.44-1.841c3.382-.77 6.119-3.472 6.559-6.913a8.086 8.086 0 0 0-6.085-8.897 53.623 53.623 0 0 1-40.14-43.256 73.794 73.794 0 0 0 19.047 1.896 8.088 8.088 0 0 0 7.792-7.166c.374-3.196-1.323-6.291-4.07-7.966-17.529-10.682-27.985-29.272-27.985-49.783 0-5.014.623-9.917 1.859-14.665 21.193 20.954 46.914 36.922 75.086 46.518.258.088 28.093 8.754 38.636 8.797.688.017 3.975.162 3.98.162 3.388.137 6.673-1.919 7.953-5.326.368-.978.502-2.03.477-3.074-.011-.471-.023-.942-.023-1.416 0-35.713 29.055-64.768 64.769-64.768 17.487 0 33.878 6.872 46.158 19.348 1.777 1.807 4.282 2.697 6.793 2.349a133.153 133.153 0 0 0 24.037-5.632 57.859 57.859 0 0 1-14.502 11.504c-3.692 2.067-5.258 6.558-3.518 10.415l.119.264a8.087 8.087 0 0 0 8.136 4.72 142.822 142.822 0 0 0 19.753-3.291 130.55 130.55 0 0 1-18.849 16.051 8.044 8.044 0 0 0-3.416 6.865l.017.511c.019.553.04 1.107.04 1.664v.731c-.186 45.29-17.461 86.654-45.668 117.994-2.882 3.201-2.702 8.117.344 11.163 3.312 3.312 8.72 3.151 11.855-.332 31.691-35.208 49.224-80.18 49.633-127.902a145.695 145.695 0 0 0 36.227-39.093 8.084 8.084 0 0 0-1.558-10.454z"/>
	</symbol>
	<symbol id="up" viewBox="0 0 59.415 59.415">
		<path d="M58 45.268L29.708 16.975 1.414 45.268 0 43.854l29.708-29.707 29.707 29.707z"/>
	</symbol>
	<symbol id="vk" viewBox="0 0 512 512">
		<path d="M440.649 295.361c16.984 16.582 34.909 32.182 50.142 50.436 6.729 8.112 13.099 16.482 17.973 25.896 6.906 13.382.651 28.108-11.348 28.907l-74.59-.034c-19.238 1.596-34.585-6.148-47.489-19.302-10.327-10.519-19.891-21.714-29.821-32.588-4.071-4.444-8.332-8.626-13.422-11.932-10.182-6.609-19.021-4.586-24.84 6.034-5.926 10.802-7.271 22.762-7.853 34.8-.799 17.564-6.108 22.182-23.751 22.986-37.705 1.778-73.489-3.926-106.732-22.947-29.308-16.768-52.034-40.441-71.816-67.24-38.513-52.183-68.008-109.525-94.516-168.473-5.967-13.281-1.603-20.41 13.051-20.663 24.333-.473 48.663-.439 73.025-.034 9.89.145 16.437 5.817 20.256 15.16 13.165 32.371 29.274 63.169 49.494 91.716 5.385 7.6 10.876 15.201 18.694 20.55 8.65 5.923 15.236 3.96 19.305-5.676 2.582-6.11 3.713-12.691 4.295-19.234 1.928-22.513 2.182-44.988-1.199-67.422-2.076-14.001-9.962-23.065-23.933-25.714-7.129-1.351-6.068-4.004-2.616-8.073 5.995-7.018 11.634-11.387 22.875-11.387h84.298c13.271 2.619 16.218 8.581 18.035 21.934l.072 93.637c-.145 5.169 2.582 20.51 11.893 23.931 7.452 2.436 12.364-3.526 16.836-8.251 20.183-21.421 34.588-46.737 47.457-72.951 5.711-11.527 10.622-23.497 15.381-35.458 3.526-8.875 9.059-13.242 19.056-13.049l81.132.072c2.406 0 4.84.035 7.17.434 13.671 2.33 17.418 8.211 13.195 21.561-6.653 20.945-19.598 38.4-32.255 55.935-13.53 18.721-28.001 36.802-41.418 55.634-12.328 17.2-11.349 25.868 3.964 40.805z"/>
	</symbol>
	<symbol id="vko" viewBox="0 0 512 512">
		<path d="M437 75C388.7 26.6 324.4 0 256 0S123.3 26.6 75 75C26.6 123.3 0 187.6 0 256s26.6 132.7 75 181c48.4 48.4 112.6 75 181 75s132.7-26.6 181-75 75-112.6 75-181-26.6-132.7-75-181zM256 495.8C123.8 495.8 16.2 388.2 16.2 256S123.8 16.2 256 16.2 495.8 123.8 495.8 256 388.2 495.8 256 495.8z"/><path d="M411.7 310.8c-7.5-9-16-17-24.2-24.8-2.9-2.7-5.9-5.6-8.7-8.4-3.9-3.8-5.8-6.4-6-8.4-.2-1.9 1.1-4.8 4.2-9.1 4.6-6.4 9.4-12.8 14.1-19 4.2-5.5 8.5-11.2 12.7-17l.9-1.3c8.1-11.2 16.5-22.8 20.9-36.9 1.3-4 2.6-10-.6-15.3-3.2-5.3-9.2-6.8-13.3-7.5-2-.4-4-.4-5.8-.4h-52.5c-9.1-.2-15.4 4.1-18.8 12.8-2.7 6.9-6 14.9-9.7 22.5-7.2 14.6-16.3 31.5-29.5 45.5l-.6.6c-.9 1-2.4 2.5-3.1 2.9-1.4-.9-3.1-6.1-3-8.8v-60.8c0-.3 0-.6-.1-.9-1.2-8.6-3.5-17.3-17.2-20-.4-.1-.9-.1-1.3-.1h-54.6c-10.3 0-15.7 4.7-20.1 9.8-1.3 1.5-4.6 5.4-2.9 10.3 1.7 4.9 6.9 5.9 8.6 6.2 5.9 1.1 9 4.5 10 10.9 1.9 12.5 2.1 25.8.7 42-.4 4.3-1.1 7.6-2.3 10.4-.3.8-.6 1.2-.8 1.5-.3-.1-.8-.4-1.5-.8-4.2-2.9-7.3-7.3-10.4-11.6-12.2-17.2-22.4-36.1-31.3-58-3.7-9-10.5-14-19.4-14.1-16.8-.3-32.4-.3-47.5 0-7.1.1-12.2 2.4-14.9 6.7-2.7 4.3-2.6 9.8.3 16.4 21 46.8 40.1 80.8 61.9 110.3 15.3 20.8 30.8 35.2 48.6 45.4 18.7 10.7 39.8 16 64.3 16 2.8 0 5.6-.1 8.5-.2 15.1-.7 21.3-6.7 21.9-21.4.4-7.8 1.2-14.1 4.2-19.6.8-1.5 1.8-2.6 2.5-2.7.8-.2 2.2.3 3.8 1.3 2.9 1.9 5.3 4.4 7.4 6.6 2.1 2.3 4.1 4.6 6.1 6.8 4.3 4.8 8.7 9.7 13.3 14.5 10.5 10.7 22.6 15.6 35.9 14.6h48.5c5.5-.4 10.3-3.4 13.1-8.4 3.4-6 3.3-13.6-.1-20.3-3.4-7.1-8.1-13.2-12.2-18.2zm.6 31.6c-.7 1.2-1.5 1.4-1.9 1.4h-48.6c-9.5.8-17.5-2.5-25.3-10.5-4.4-4.5-8.7-9.3-12.9-14-2-2.3-4.1-4.6-6.2-6.9-2.6-2.9-5.9-6.1-10-8.8-6.2-4-11.4-3.9-14.6-3.1-3.2.8-7.7 3.1-11.2 9.5-4.5 8.2-5.5 17.1-5.9 25.5-.2 5.1-1.1 6.5-1.5 6.8-.5.5-2.1 1.2-7.4 1.5-25.5 1.2-46.9-3.4-65.4-14-16.1-9.2-30.2-22.4-44.4-41.6-21.2-28.7-39.8-62-60.5-107.8-.7-1.7-1-2.7-1-3.3.5-.2 1.6-.4 3.4-.4 15-.3 30.4-.3 47 0 2.3 0 4.9.7 6.8 5.5 9.3 22.8 20 42.7 32.8 60.8 3.4 4.8 7.6 10.8 13.8 15 5.7 3.9 10.3 3.7 13.2 2.9 2.9-.8 6.9-3.2 9.5-9.5 1.7-4.1 2.8-8.7 3.3-14.5 1.5-17.3 1.2-31.7-.8-45.2-1.4-9.7-6.5-16.7-14.4-20.3 1.4-.7 3-1 5.2-1h53.9c3 .7 3.6 1.5 3.8 1.8.9 1.2 1.4 3.9 1.7 6.1v60.1c-.1 5.8 2.7 18.5 12.2 22 .1 0 .2.1.2.1 8.7 2.8 14.4-3.3 17.5-6.6l.5-.6c14.5-15.4 24.3-33.4 31.9-48.9 4-8 7.3-16.3 10.2-23.5 1.4-3.6 2.7-4.2 5.8-4.1h52.6c1.2 0 2.5 0 3.5.2 2.5.4 3.5.9 3.9 1.2 0 .4 0 1.5-.7 3.9-3.8 12-11.2 22.2-19 33l-.9 1.3c-4.1 5.6-8.3 11.2-12.5 16.7-4.8 6.3-9.7 12.8-14.4 19.3-10 13.9-9.1 23.2 3.4 35.3 2.9 2.9 6 5.7 8.9 8.5 8.3 7.8 16.1 15.3 23.1 23.6 3.7 4.4 7.8 9.7 10.8 15.5 1.8 2.9 1.4 5.7.6 7.1z"/><path d="M131.9 198.9l-3-6c-1.7-3.4-5.8-4.8-9.2-3.1-3.4 1.7-4.8 5.8-3.1 9.2 1 2 2 4.1 3.1 6.1 1.2 2.4 3.6 3.8 6.1 3.8 1 0 2.1-.2 3.1-.7 3.3-1.8 4.7-5.9 3-9.3zm43.1 71.3c-11.3-15.3-21.8-31.9-32.3-50.7-1.8-3.3-6-4.5-9.3-2.7-3.3 1.8-4.5 6-2.7 9.3 10.7 19.4 21.6 36.5 33.2 52.3 1.3 1.8 3.4 2.8 5.5 2.8 1.4 0 2.8-.4 4.1-1.3 3.1-2.3 3.8-6.6 1.5-9.7z"/>
	</symbol>
	<symbol id="watch" viewBox="0 0 60 60">
		<path d="M31.634 37.989a3.558 3.558 0 0 0 2.606-1.459l9.363-12.944a1 1 0 0 0-1.397-1.397L29.26 31.555c-.844.614-1.375 1.563-1.456 2.604s.296 2.06 1.033 2.797a3.554 3.554 0 0 0 2.797 1.033zm-1.836-3.674a1.56 1.56 0 0 1 .637-1.142l7.897-5.713-5.711 7.895a1.565 1.565 0 0 1-2.371.187 1.564 1.564 0 0 1-.452-1.227z"/><path d="M54.034 19.564c-.01-.021-.01-.043-.021-.064-.012-.02-.031-.031-.044-.05a27.185 27.185 0 0 0-3.565-4.809l2.148-2.147 1.414 1.414 4.242-4.243-4.242-4.242-4.243 4.242 1.415 1.415-2.148 2.147a27.154 27.154 0 0 0-4.809-3.566c-.019-.013-.03-.032-.05-.044-.021-.012-.043-.011-.064-.022a26.81 26.81 0 0 0-10.273-3.404V5h1.5c1.379 0 2.5-1.121 2.5-2.5S36.672 0 35.293 0h-9c-1.379 0-2.5 1.121-2.5 2.5s1.121 2.5 2.5 2.5h1.5v1.156c-1.08.115-2.158.291-3.224.535a1 1 0 1 0 .447 1.949 25.43 25.43 0 0 1 2.78-.477l1.073-.083c.328-.025.63-.043.924-.057V10a1 1 0 1 0 2 0V8.03a24.805 24.805 0 0 1 10.456 2.845l-.986 1.707a1 1 0 0 0 1.732 1l.983-1.703a25.194 25.194 0 0 1 7.772 7.772l-1.703.983a1 1 0 0 0 1.002 1.732l1.707-.986a24.82 24.82 0 0 1 2.849 10.619H53.63a1 1 0 1 0 0 2h1.975a24.82 24.82 0 0 1-2.849 10.619l-1.707-.986a1 1 0 0 0-1 1.732l1.703.983a25.194 25.194 0 0 1-7.772 7.772l-.983-1.703a.998.998 0 0 0-1.366-.366.999.999 0 0 0-.366 1.366l.986 1.707a24.805 24.805 0 0 1-10.456 2.845V56a1 1 0 1 0-2 0v1.976a25.235 25.235 0 0 1-4.776-.617.996.996 0 0 0-1.198.751 1 1 0 0 0 .751 1.198c1.996.46 4.035.692 6.058.692.049 0 .096-.003.145-.004.007 0 .012.004.018.004.008 0 .015-.005.023-.005a26.825 26.825 0 0 0 13.219-3.573c.031-.014.064-.021.094-.039.02-.012.031-.031.05-.044a27.197 27.197 0 0 0 9.773-9.761c.019-.027.043-.048.06-.078.012-.021.011-.043.021-.064C56.317 42.476 57.63 37.89 57.63 33s-1.313-9.476-3.596-13.436zm-.069-11.313l1.414 1.414-1.414 1.415-1.415-1.415 1.415-1.414zm-24.172-2.23V3h-3.5c-.275 0-.5-.225-.5-.5s.225-.5.5-.5h9c.275 0 .5.225.5.5s-.225.5-.5.5h-3.5v3.021c-.348-.014-.68-.021-1-.021l-.088.002L30.63 6c-.164 0-.328.011-.492.014-.116.003-.225.002-.345.007zm-8 7.979h-5a1 1 0 1 0 0 2h5a1 1 0 1 0 0-2zm0 7h-10a1 1 0 1 0 0 2h10a1 1 0 1 0 0-2zm0 7h-15a1 1 0 1 0 0 2h15a1 1 0 1 0 0-2zm0 7h-19a1 1 0 1 0 0 2h19a1 1 0 1 0 0-2zm0 7h-13a1 1 0 1 0 0 2h13a1 1 0 1 0 0-2zm0 7h-7a1 1 0 1 0 0 2h7a1 1 0 1 0 0-2z"/>
	</symbol>
</svg>