<svg xmlns="http://www.w3.org/2000/svg" class="icons-sprite">
	<symbol id="check" viewBox="0 0 456.556 456.556">
		<path d="M228.278 456.556C102.403 456.556 0 354.153 0 228.278S102.403 0 228.278 0c42.641 0 84.233 11.834 120.287 34.228 6.301 3.91 8.232 12.19 4.322 18.492-3.917 6.301-12.197 8.246-18.492 4.322-31.794-19.751-68.49-30.185-106.117-30.185-111.065 0-201.422 90.36-201.422 201.422S117.213 429.7 228.278 429.7c111.062 0 201.422-90.36 201.422-201.422 0-22.324-3.623-44.243-10.77-65.147-2.399-7.015 1.35-14.652 8.365-17.051 7.029-2.385 14.652 1.35 17.051 8.365 8.099 23.709 12.211 48.551 12.211 73.834-.001 125.874-102.404 228.277-228.279 228.277z"/><path d="M228.278 305.727c-3.406 0-6.7-1.294-9.193-3.644L111.66 201.17c-5.406-5.077-5.672-13.575-.594-18.981 5.078-5.399 13.575-5.679 18.981-.587l97.092 91.206L403.564 63.371c4.77-5.672 13.246-6.399 18.918-1.616 5.672 4.777 6.399 13.246 1.616 18.918L238.545 300.951a13.434 13.434 0 0 1-9.484 4.756c-.258.013-.524.02-.783.02z"/>
	</symbol>
	<symbol id="cross" viewBox="0 0 31.112 31.112">
		<path d="M31.112 1.414L29.698 0 15.556 14.142 1.414 0 0 1.414l14.142 14.142L0 29.698l1.414 1.414L15.556 16.97l14.142 14.142 1.414-1.414L16.97 15.556z"/>
	</symbol>
	<symbol id="exclame" viewBox="0 0 612.816 612.816">
		<path d="M306.408 0C137.368 0 .371 136.997.371 306.037s136.997 306.779 306.037 306.779 306.037-137.813 306.037-306.037C612.445 137.739 475.448 0 306.408 0zm0 583.147c-152.203 0-276.368-124.165-276.368-276.368S154.205 29.595 306.408 29.595 582.776 153.76 582.776 306.779 458.611 583.147 306.408 583.147zm15.205-151.387c0 8.827-7.195 16.021-16.021 16.021-8.827 0-16.021-7.195-16.021-16.021 0-8.827 7.195-16.021 16.021-16.021s16.021 7.195 16.021 16.021zm-31.226-78.549v-180.24c0-8.011 6.379-14.39 14.39-14.39 8.011 0 14.39 6.379 14.39 14.39v180.24c0 8.011-6.379 14.39-14.39 14.39-8.011.89-14.39-6.379-14.39-14.39z"/>
	</symbol>
	<symbol id="fb" viewBox="0 0 512 512">
		<path d="M134.941 272.691h56.123v231.051a8.256 8.256 0 0 0 8.258 8.258h95.159a8.256 8.256 0 0 0 8.258-8.258V273.78h64.519a8.26 8.26 0 0 0 8.204-7.315l9.799-85.061a8.259 8.259 0 0 0-8.202-9.203h-74.316V118.88c0-16.073 8.654-24.224 25.726-24.224h48.59a8.258 8.258 0 0 0 8.258-8.258V8.319a8.256 8.256 0 0 0-8.258-8.258h-66.965A65.863 65.863 0 0 0 307.027 0c-11.619 0-52.006 2.281-83.909 31.63-35.348 32.524-30.434 71.465-29.26 78.217v62.352H134.94a8.256 8.256 0 0 0-8.258 8.258v83.975a8.26 8.26 0 0 0 8.259 8.259z"/>
	</symbol>
	<symbol id="icon1" viewBox="0 0 497.984 497.984">
		<path d="M378.56 497.984L392.552 456h-200.8c-16.96 0-30.76-13.8-30.76-30.76V320h16v105.24c0 8.144 6.616 14.76 14.76 14.76H414.76l-7.336 22.016L444.112 440h22.128c8.136 0 14.752-6.616 14.752-14.76V294.76c0-8.144-6.616-14.76-14.76-14.76h-169.24v-16h169.24c16.96 0 30.76 13.8 30.76 30.76v130.488c0 16.952-13.8 30.752-30.76 30.752h-17.688l-69.984 41.984z"/><path d="M184.992 184h120v113.24c0 16.96-13.8 30.76-30.76 30.76h-9.24l16 40-72-40H31.752c-16.96 0-30.76-13.8-30.76-30.76V166.76c0-16.96 13.8-30.76 30.76-30.76h137.24v32l16 16z"/><path d="M378.56 233.984L392.552 192h-200.8c-16.96 0-30.76-13.8-30.76-30.76V30.76c0-16.96 13.8-30.76 30.76-30.76H466.24c16.952 0 30.752 13.8 30.752 30.76v130.488c0 16.952-13.8 30.752-30.76 30.752h-17.688l-69.984 41.984zM191.752 16c-8.144 0-14.76 6.616-14.76 14.76v130.488c0 8.136 6.616 14.752 14.76 14.752H414.76l-7.336 22.016L444.112 176h22.128c8.136 0 14.752-6.616 14.752-14.76V30.76c0-8.144-6.616-14.76-14.76-14.76h-274.48z"/><path d="M200.992 48h256v16h-256zm0 40h256v16h-256zm0 40h216v16h-216zm240 0h16v16h-16zm-400 56h104v16h-104zm0 40h224v16h-224zm0 40h184v16h-184zm208 0h16v16h-16zm80 48h128v16h-128zm-24 40h152v16h-152zm-104 40h216v16h-216zm240 0h16v16h-16z"/>
	</symbol>
	<symbol id="icon2" viewBox="0 0 64 64">
		<path d="M63.759 31.645l-7.035-8.207 7.035-8.207a.997.997 0 0 0-.274-1.524L40.71 1.054a1 1 0 0 0-1.19.164l-6.917 6.858-6.855-6.855a1 1 0 0 0-1.208-.158L.5 14.981a1.001 1.001 0 0 0-.15 1.624l8.146 6.982-7.03 9.374a.997.997 0 0 0 .315 1.474l7.003 3.89a.977.977 0 0 0-.06.297v9.25a3.45 3.45 0 0 0 1.717 2.976l20.35 11.748a3.557 3.557 0 0 0 1.775.474l.018-.001c.006 0 .01.003.016.003.01 0 .02-.006.03-.006a3.556 3.556 0 0 0 1.713-.47L54.63 50.883a3.573 3.573 0 0 0 1.778-3.082V37.496l7.114-4.347a1 1 0 0 0 .237-1.504zm-32.16 2.729L11.843 23.397 31.6 11.323v23.05zm2-23.091l19.824 12.114L33.6 34.411V11.283zm6.797-8.115L61.443 14.86l-6.24 7.28-21-12.833 6.193-6.14zm-15.519.01l6.15 6.15-21.07 12.879-7.234-6.2 22.154-12.83zM10.134 24.735l20.968 11.65-6.341 8.529L3.754 33.243l6.38-8.508zm1.308 24.382a1.444 1.444 0 0 1-.717-1.244v-8.47l13.83 7.684a1 1 0 0 0 1.288-.277l5.757-7.742v21.686L11.442 49.117zM54.408 47.8c0 .555-.299 1.073-.779 1.35l-20.03 11.565v-21.67l5.826 7.767a.999.999 0 0 0 1.321.254l13.662-8.349V47.8zM40.48 44.886l-6.36-8.477 21.06-11.7 6.297 7.345L40.48 44.886z"/>
	</symbol>
	<symbol id="icon3" viewBox="0 0 496 496">
		<path d="M160 120h176v96H160z"/><path d="M496 192v-40h-80v-24h16V88h-56V64h16V24H104v40h16v24H64v40h16v24H0v40h16v264H0v16h496v-16h-16V192h16zm-16-24v8h-64v-8h64zm-64-64v8h-40v-8h40zM120 40h256v8H120v-8zm16 24h224v248H136V64zm-56 40h40v8H80v-8zm-64 64h64v8H16v-8zm16 24h48v264H32V192zm64 264V128h24v328H96zm232 0h-72v-96h72v96zm-88 0h-72v-96h72v96zm104 0V344H152v112h-16V328h224v128h-16zm32-328h24v328h-24V128zm88 328h-48V192h48v264z"/><path d="M184 144h128v16H184zm112 32h16v16h-16zm-112 0h96v16h-96zm32 208h16v40h-16zm48 0h16v40h-16z"/>
	</symbol>
	<symbol id="icon4" viewBox="0 0 60 60">
		<path d="M55.517 46.55l-9.773-4.233c-.23-.115-.485-.396-.704-.771l6.525-.005c.114.011 2.804.257 4.961-.67a2.94 2.94 0 0 0 1.669-1.907 2.967 2.967 0 0 0-.426-2.523c-1.865-2.654-6.218-9.589-6.354-16.623-.003-.121-.397-12.083-12.21-12.18-1.739.014-3.347.309-4.81.853a8.316 8.316 0 0 0-1.488-2.459C30.854 3.688 27.521 2.5 23 2.5s-7.854 1.188-9.908 3.53c-2.368 2.701-2.148 5.976-2.092 6.525v5.319c-.64.729-1 1.662-1 2.625v4c0 1.217.553 2.352 1.497 3.109.916 3.627 2.833 6.36 3.503 7.237v3.309c0 .968-.528 1.856-1.377 2.32L4.702 45.34A9.02 9.02 0 0 0 0 53.262V57.5h60v-3.697a8.065 8.065 0 0 0-4.483-7.253zM44 55.5H2v-2.238a7.016 7.016 0 0 1 3.659-6.164l8.921-4.866A4.644 4.644 0 0 0 17 38.155v-4.019l-.233-.278c-.024-.029-2.475-2.994-3.41-7.065l-.091-.396-.341-.22A1.995 1.995 0 0 1 12 24.5v-4c0-.561.238-1.084.67-1.475l.33-.297V12.5l-.009-.131c-.003-.027-.343-2.799 1.605-5.021C16.253 5.458 19.081 4.5 23 4.5c3.905 0 6.727.951 8.386 2.828.825.932 1.24 1.973 1.447 2.867l.045.208c.014.071.029.142.04.21a12.777 12.777 0 0 1 .057.384c.015.124.027.244.035.355l.001.026a9.417 9.417 0 0 1 .016.354c.002.083.002.162.001.231v.03c-.004.235-.02.375-.02.378L33 18.728l.33.298c.432.39.67.913.67 1.474v4c0 .873-.572 1.637-1.422 1.899l-.498.153-.16.495a20.934 20.934 0 0 1-2.834 5.713c-.297.421-.586.794-.837 1.079l-.249.284v4.125c0 .253.025.501.064.745.008.052.022.102.032.154a4.692 4.692 0 0 0 .203.723c.078.209.169.411.275.605l.035.067c.145.256.312.499.504.723l.228.281h.039c.343.338.737.632 1.185.856l9.553 4.776A6.979 6.979 0 0 1 44 53.457V55.5zm14 0H46v-2.043a8.972 8.972 0 0 0-4.986-8.068l-6.858-3.43c.169-.386.191-.828.043-1.254a1.706 1.706 0 0 0-1.63-1.16h-2.217c-.046-.081-.076-.17-.113-.256-.05-.115-.109-.228-.142-.349a2.61 2.61 0 0 1-.097-.692v-3.381c.229-.28.47-.599.719-.951a22.886 22.886 0 0 0 2.954-5.799A3.968 3.968 0 0 0 36 24.5v-4c0-.963-.36-1.896-1-2.625v-5.319a8.799 8.799 0 0 0-.084-2.139c1.288-.506 2.731-.767 4.29-.78 9.841.081 10.2 9.811 10.21 10.221.147 7.583 4.746 14.927 6.717 17.732a.97.97 0 0 1 .139.827.934.934 0 0 1-.535.615c-1.68.723-3.959.518-4.076.513h-6.883c-.643 0-1.229.327-1.568.874a1.823 1.823 0 0 0-.086 1.783c.313.631.866 1.474 1.775 1.927l9.747 4.222A6.074 6.074 0 0 1 58 53.803V55.5z"/>
	</symbol>
	<symbol id="left" viewBox="0 0 59.414 59.414">
		<path d="M43.854 59.414L14.146 29.707 43.854 0l1.414 1.414-28.293 28.293L45.268 58z"/>
	</symbol>
	<symbol id="marker" viewBox="0 0 512 512">
		<path d="M256 0C154.734 0 72.348 82.386 72.348 183.652c0 34.826 9.837 68.755 28.456 98.109l141.098 222.484c3.06 4.831 8.38 7.755 14.098 7.755s11.038-2.924 14.098-7.756L411.196 281.76c18.619-29.353 28.456-63.282 28.456-98.108C439.652 82.386 357.266 0 256 0zm0 283.826c-55.234 0-100.174-44.94-100.174-100.174 0-55.234 44.94-100.174 100.174-100.174s100.174 44.94 100.174 100.174c0 55.234-44.94 100.174-100.174 100.174z"/>
	</symbol>
	<symbol id="right" viewBox="0 0 59.414 59.414">
		<path d="M15.561 59.414L14.146 58l28.293-28.293L14.146 1.414 15.561 0l29.707 29.707z"/>
	</symbol>
	<symbol id="ru" viewBox="0 0 124.099 124.1">
		<path d="M18.25 106.7c5.6 5.399 12.3 9.8 20.1 12.8 7.8 3 16.5 4.6 25.9 4.6 10.5 0 20.2-1.6 28.9-4.899 7.9-2.9 1.1-17.601-4.7-15.2-6.399 2.7-14.2 4.1-23.101 4.1-7 0-13.399-1.1-19-3.199-5.6-2.101-10.5-5.101-14.5-9-4-3.9-7.2-8.7-9.4-14.2-2.3-5.601-3.4-12-3.4-19 0-6.6 1.1-12.9 3.3-18.5 2.2-5.6 5.2-10.6 9.2-14.6 3.9-4.1 8.7-7.4 14.2-9.7 5.5-2.3 11.7-3.5 18.5-3.5 6.301 0 12.1.9 17.301 2.5 5.1 1.6 9.5 4.1 13.199 7.4 3.7 3.3 6.6 7.3 8.7 12.1 2.101 4.8 3.101 10.4 3.101 16.8 0 3.7-.4 7.2-1.201 10.5-.799 3.1-1.799 5.899-3.199 8.1-1.301 2.101-2.801 3.8-4.6 5-2.101 1.4-5.201 2.2-7.601 1.4-3-1-2.399-5.2-2.2-7.7.301-3.4 1.2-6.6 1.9-9.9 1.1-5.4 2.3-10.7 3.4-16 .6-2.9 1.299-5.9 1.899-8.8.8-3.7-2-7.3-5.899-7.3h-4.4c-2.7 0-5.1 1.8-5.801 4.4-.299 1.2-.6 2.2-.6 2.2-2.199-6.8-10.3-8.7-16.7-8.6-8.4.1-16.1 4.4-21.7 10.5-.5.6-1.1 1.2-1.6 1.8-2.9 3.5-5.1 7.6-6.6 11.9-1.6 4.6-2.4 9.3-2.4 14.1 0 4.101.6 8 1.7 11.5 1.2 3.601 2.9 6.7 5.1 9.3 2.2 2.601 5 4.7 8.3 6.2 3.3 1.5 7 2.3 11 2.3 3 0 5.8-.5 8.3-1.399 2.4-.9 4.6-2 6.5-3.3 1.5-1 2.9-2.2 4-3.301.699 1.301 1.5 2.4 2.6 3.5 2.801 3 7.1 4.5 12.801 4.5 4.5 0 8.899-.899 13-2.699 4.1-1.801 7.799-4.601 10.899-8.2 3-3.601 5.5-8 7.3-13.2 1.801-5.2 2.7-11.2 2.7-17.8 0-9-1.7-17-5-23.7s-7.8-12.4-13.399-16.9c-5.5-4.5-11.9-7.8-19-10.1C79.05 1.1 71.75 0 64.25 0c-8.7 0-17 1.6-24.7 4.7-7.7 3.2-14.5 7.6-20.2 13.1-5.8 5.5-10.4 12.2-13.7 19.7-3.3 7.5-5 15.9-5 24.7 0 8.899 1.5 17.3 4.6 24.8 3 7.6 7.4 14.2 13 19.7zm54.099-42c-.699 2.7-1.699 5.3-3.1 7.7-1.4 2.3-3.1 4.199-5.3 5.699-2 1.4-4.4 2.101-7.4 2.101-1.9 0-3.4-.4-4.5-1.101-1.2-.8-2.2-1.8-2.9-3.1-.8-1.4-1.3-2.9-1.6-4.4-.3-1.6-.5-3.1-.5-4.399 0-2.8.4-5.6 1.2-8.5.8-2.8 1.9-5.4 3.4-7.6 1.5-2.2 3.2-4 5.3-5.4 1.9-1.3 4-1.9 6.5-1.9 2 0 3.601.3 4.8 1 1.2.7 2.2 1.6 2.9 2.7.8 1.2 1.3 2.6 1.699 4.1.4 1.7.601 3.5.601 5.2-.1 2.5-.399 5.1-1.1 7.9z"/>
	</symbol>
	<symbol id="vk" viewBox="0 0 512 512">
		<path d="M440.649 295.361c16.984 16.582 34.909 32.182 50.142 50.436 6.729 8.112 13.099 16.482 17.973 25.896 6.906 13.382.651 28.108-11.348 28.907l-74.59-.034c-19.238 1.596-34.585-6.148-47.489-19.302-10.327-10.519-19.891-21.714-29.821-32.588-4.071-4.444-8.332-8.626-13.422-11.932-10.182-6.609-19.021-4.586-24.84 6.034-5.926 10.802-7.271 22.762-7.853 34.8-.799 17.564-6.108 22.182-23.751 22.986-37.705 1.778-73.489-3.926-106.732-22.947-29.308-16.768-52.034-40.441-71.816-67.24-38.513-52.183-68.008-109.525-94.516-168.473-5.967-13.281-1.603-20.41 13.051-20.663 24.333-.473 48.663-.439 73.025-.034 9.89.145 16.437 5.817 20.256 15.16 13.165 32.371 29.274 63.169 49.494 91.716 5.385 7.6 10.876 15.201 18.694 20.55 8.65 5.923 15.236 3.96 19.305-5.676 2.582-6.11 3.713-12.691 4.295-19.234 1.928-22.513 2.182-44.988-1.199-67.422-2.076-14.001-9.962-23.065-23.933-25.714-7.129-1.351-6.068-4.004-2.616-8.073 5.995-7.018 11.634-11.387 22.875-11.387h84.298c13.271 2.619 16.218 8.581 18.035 21.934l.072 93.637c-.145 5.169 2.582 20.51 11.893 23.931 7.452 2.436 12.364-3.526 16.836-8.251 20.183-21.421 34.588-46.737 47.457-72.951 5.711-11.527 10.622-23.497 15.381-35.458 3.526-8.875 9.059-13.242 19.056-13.049l81.132.072c2.406 0 4.84.035 7.17.434 13.671 2.33 17.418 8.211 13.195 21.561-6.653 20.945-19.598 38.4-32.255 55.935-13.53 18.721-28.001 36.802-41.418 55.634-12.328 17.2-11.349 25.868 3.964 40.805z"/>
	</symbol>
</svg>