<?xml version="1.0" encoding="iso-8859-1"?>
<!-- Generator: Adobe Illustrator 19.0.0, SVG Export Plug-In . SVG Version: 6.00 Build 0)  -->
<svg version="1.1" id="Layer_1" xmlns="http://www.w3.org/2000/svg" xmlns:xlink="http://www.w3.org/1999/xlink" x="0px" y="0px"
	 viewBox="0 0 512 512" style="enable-background:new 0 0 512 512;" xml:space="preserve">
<g>
	<g>
		<path d="M256,0C154.734,0,72.348,82.386,72.348,183.652c0,34.826,9.837,68.755,28.456,98.109l141.098,222.484
			c3.06,4.831,8.38,7.755,14.098,7.755s11.038-2.924,14.098-7.756L411.196,281.76c18.619-29.353,28.456-63.282,28.456-98.108
			C439.652,82.386,357.266,0,256,0z M256,283.826c-55.234,0-100.174-44.94-100.174-100.174c0-55.234,44.94-100.174,100.174-100.174
			s100.174,44.94,100.174,100.174C356.174,238.886,311.234,283.826,256,283.826z"/>
	</g>
</g>
<g>
</g>
<g>
</g>
<g>
</g>
<g>
</g>
<g>
</g>
<g>
</g>
<g>
</g>
<g>
</g>
<g>
</g>
<g>
</g>
<g>
</g>
<g>
</g>
<g>
</g>
<g>
</g>
<g>
</g>
</svg>
