<?xml version="1.0" encoding="utf-8"?>
<!-- Generator: Adobe Illustrator 21.1.0, SVG Export Plug-In . SVG Version: 6.00 Build 0)  -->
<svg version="1.1" id="Layer_1" xmlns="http://www.w3.org/2000/svg" xmlns:xlink="http://www.w3.org/1999/xlink" x="0px" y="0px"
	 viewBox="0 0 512 512" style="enable-background:new 0 0 512 512;" xml:space="preserve">
<g>
	<g>
		<path d="M437,75C388.7,26.6,324.4,0,256,0S123.3,26.6,75,75C26.6,123.3,0,187.6,0,256s26.6,132.7,75,181
			c48.4,48.4,112.6,75,181,75s132.7-26.6,181-75s75-112.6,75-181S485.4,123.3,437,75z M256,495.8C123.8,495.8,16.2,388.2,16.2,256
			S123.8,16.2,256,16.2S495.8,123.8,495.8,256S388.2,495.8,256,495.8z"/>
	</g>
</g>
<g>
	<g>
		<path d="M411.7,310.8c-7.5-9-16-17-24.2-24.8c-2.9-2.7-5.9-5.6-8.7-8.4c0,0,0,0,0,0c-3.9-3.8-5.8-6.4-6-8.4
			c-0.2-1.9,1.1-4.8,4.2-9.1c4.6-6.4,9.4-12.8,14.1-19c4.2-5.5,8.5-11.2,12.7-17l0.9-1.3c8.1-11.2,16.5-22.8,20.9-36.9
			c1.3-4,2.6-10-0.6-15.3c-3.2-5.3-9.2-6.8-13.3-7.5c-2-0.4-4-0.4-5.8-0.4l-52.5,0c-9.1-0.2-15.4,4.1-18.8,12.8
			c-2.7,6.9-6,14.9-9.7,22.5c-7.2,14.6-16.3,31.5-29.5,45.5l-0.6,0.6c-0.9,1-2.4,2.5-3.1,2.9c-1.4-0.9-3.1-6.1-3-8.8
			c0-0.1,0-0.1,0-0.2l0-60.6c0-0.3,0-0.6-0.1-0.9c-1.2-8.6-3.5-17.3-17.2-20c-0.4-0.1-0.9-0.1-1.3-0.1h-54.6
			c-10.3,0-15.7,4.7-20.1,9.8c-1.3,1.5-4.6,5.4-2.9,10.3c1.7,4.9,6.9,5.9,8.6,6.2c5.9,1.1,9,4.5,10,10.9c1.9,12.5,2.1,25.8,0.7,42
			c-0.4,4.3-1.1,7.6-2.3,10.4c-0.3,0.8-0.6,1.2-0.8,1.5c-0.3-0.1-0.8-0.4-1.5-0.8c-4.2-2.9-7.3-7.3-10.4-11.6
			c-12.2-17.2-22.4-36.1-31.3-58c-3.7-9-10.5-14-19.4-14.1c-16.8-0.3-32.4-0.3-47.5,0c-7.1,0.1-12.2,2.4-14.9,6.7
			c-2.7,4.3-2.6,9.8,0.3,16.4c21,46.8,40.1,80.8,61.9,110.3c15.3,20.8,30.8,35.2,48.6,45.4c18.7,10.7,39.8,16,64.3,16
			c2.8,0,5.6-0.1,8.5-0.2c15.1-0.7,21.3-6.7,21.9-21.4c0.4-7.8,1.2-14.1,4.2-19.6c0.8-1.5,1.8-2.6,2.5-2.7c0.8-0.2,2.2,0.3,3.8,1.3
			c2.9,1.9,5.3,4.4,7.4,6.6c2.1,2.3,4.1,4.6,6.1,6.8c4.3,4.8,8.7,9.7,13.3,14.5c10.5,10.7,22.6,15.6,35.9,14.6l48,0c0,0,0,0,0,0
			c0.2,0,0.3,0,0.5,0c5.5-0.4,10.3-3.4,13.1-8.4c3.4-6,3.3-13.6-0.1-20.3C420.5,321.9,415.8,315.8,411.7,310.8z M412.3,342.4
			c-0.7,1.2-1.5,1.4-1.9,1.4l-48,0c0,0,0,0,0,0c-0.2,0-0.4,0-0.6,0c-9.5,0.8-17.5-2.5-25.3-10.5c-4.4-4.5-8.7-9.3-12.9-14
			c-2-2.3-4.1-4.6-6.2-6.9c-2.6-2.9-5.9-6.1-10-8.8c-6.2-4-11.4-3.9-14.6-3.1c-3.2,0.8-7.7,3.1-11.2,9.5c-4.5,8.2-5.5,17.1-5.9,25.5
			c-0.2,5.1-1.1,6.5-1.5,6.8c-0.5,0.5-2.1,1.2-7.4,1.5c-25.5,1.2-46.9-3.4-65.4-14c-16.1-9.2-30.2-22.4-44.4-41.6
			c-21.2-28.7-39.8-62-60.5-107.8c-0.7-1.7-1-2.7-1-3.3c0.5-0.2,1.6-0.4,3.4-0.4c15-0.3,30.4-0.3,47,0c2.3,0,4.9,0.7,6.8,5.5
			c9.3,22.8,20,42.7,32.8,60.8c3.4,4.8,7.6,10.8,13.8,15c5.7,3.9,10.3,3.7,13.2,2.9c2.9-0.8,6.9-3.2,9.5-9.5
			c1.7-4.1,2.8-8.7,3.3-14.5c1.5-17.3,1.2-31.7-0.8-45.2c-1.4-9.7-6.5-16.7-14.4-20.3c1.4-0.7,3-1,5.2-1h53.9c3,0.7,3.6,1.5,3.8,1.8
			c0.9,1.2,1.4,3.9,1.7,6.1l0,60.1c-0.1,5.8,2.7,18.5,12.2,22c0.1,0,0.2,0.1,0.2,0.1c8.7,2.8,14.4-3.3,17.5-6.6l0.5-0.6
			c14.5-15.4,24.3-33.4,31.9-48.9c4-8,7.3-16.3,10.2-23.5c1.4-3.6,2.7-4.2,5.8-4.1c0,0,0.1,0,0.1,0l52.5,0c1.2,0,2.5,0,3.5,0.2
			c2.5,0.4,3.5,0.9,3.9,1.2c0,0.4,0,1.5-0.7,3.9c-3.8,12-11.2,22.2-19,33l-0.9,1.3c-4.1,5.6-8.3,11.2-12.5,16.7
			c-4.8,6.3-9.7,12.8-14.4,19.3c-10,13.9-9.1,23.2,3.4,35.3c2.9,2.9,6,5.7,8.9,8.5c8.3,7.8,16.1,15.3,23.1,23.6
			c3.7,4.4,7.8,9.7,10.8,15.5C413.5,338.2,413.1,341,412.3,342.4z"/>
	</g>
</g>
<g>
	<g>
		<path d="M131.9,198.9c-1-2-2-4-3-6c-1.7-3.4-5.8-4.8-9.2-3.1c-3.4,1.7-4.8,5.8-3.1,9.2c1,2,2,4.1,3.1,6.1c1.2,2.4,3.6,3.8,6.1,3.8
			c1,0,2.1-0.2,3.1-0.7C132.2,206.4,133.6,202.3,131.9,198.9z"/>
	</g>
</g>
<g>
	<g>
		<path d="M175,270.2c-11.3-15.3-21.8-31.9-32.3-50.7c-1.8-3.3-6-4.5-9.3-2.7c-3.3,1.8-4.5,6-2.7,9.3c10.7,19.4,21.6,36.5,33.2,52.3
			c1.3,1.8,3.4,2.8,5.5,2.8c1.4,0,2.8-0.4,4.1-1.3C176.6,277.6,177.3,273.3,175,270.2z"/>
	</g>
</g>
</svg>
