<?xml version="1.0" encoding="utf-8"?>
<!-- Generator: Adobe Illustrator 21.1.0, SVG Export Plug-In . SVG Version: 6.00 Build 0)  -->
<svg version="1.1" id="Layer_1" xmlns="http://www.w3.org/2000/svg" xmlns:xlink="http://www.w3.org/1999/xlink" x="0px" y="0px"
	 viewBox="0 0 4100 964.1" style="enable-background:new 0 0 4100 964.1;" xml:space="preserve">
<style type="text/css">
	.st0{fill:url(#SVGID_1_);}
	.st1{fill:url(#SVGID_2_);}
	.st2{fill:url(#SVGID_3_);}
	.st3{fill:url(#SVGID_4_);}
	.st4{fill:url(#SVGID_5_);}
	.st5{fill:url(#SVGID_6_);}
	.st6{fill:url(#SVGID_7_);}
	.st7{fill:url(#SVGID_8_);}
</style>
<g id="bc1">
	<g>
		<linearGradient id="SVGID_1_" gradientUnits="userSpaceOnUse" x1="835.6573" y1="482.0748" x2="2307.1804" y2="482.0748">
			<stop  offset="0" style="stop-color:#FF496A"/>
			<stop  offset="1" style="stop-color:#E17FBC"/>
		</linearGradient>
		<path class="st0" d="M2156.8,141.2C2065.8,50.1,1944.7,0,1815.9,0c-128.8,0-249.8,50.1-340.9,141.2
			c-91.1,91.1-141.2,212.1-141.2,340.9c0,128.8,50.1,249.8,141.2,340.9c91.1,91.1,212.1,141.2,340.9,141.2c6.4,0,12.7-0.2,19-0.4
			l-74.7-74.6C1560,862,1405,689.8,1405,482.1c0-226.6,184.3-410.9,410.9-410.9s410.9,184.3,410.9,410.9
			c0,181.5-118.3,335.8-281.8,390.1l-346-345l-0.8-0.8l-0.9-0.8c-26.9-23.5-42.4-57.4-42.4-92.9c0-68.1,55.4-123.4,123.4-123.4
			c43.5,0,79.3,40.3,105.1,75.2l30.3,39.6l30.3-39.6c26.8-33.8,61.6-75.2,105.1-75.2c68.1,0,123.4,55.4,123.4,123.4
			c0,35.5-15.5,69.4-42.4,92.9l-0.9,0.8L1864.6,691l50,50L2078,578.3c41.9-37,65.8-90,65.8-145.7c0-107.3-87.3-194.6-194.6-194.6
			c-54,0-101.4,31.1-135.4,68.7c-34.1-37.6-81.4-68.7-135.4-68.7c-107.3,0-194.6,87.3-194.6,194.6c0,55.7,24,108.7,65.8,145.7
			L1924,952c87.5-19.9,167.8-64.1,232.8-129.1c91.1-91.1,141.2-212.1,141.2-340.9C2298,353.3,2247.9,232.2,2156.8,141.2z"/>
	</g>
</g>
<g>
	<g>
		<linearGradient id="SVGID_2_" gradientUnits="userSpaceOnUse" x1="0" y1="494.0632" x2="4099.9956" y2="494.0632">
			<stop  offset="0" style="stop-color:#ED3243"/>
			<stop  offset="3.011498e-02" style="stop-color:#EF3A50"/>
			<stop  offset="0.1194" style="stop-color:#F54F72"/>
			<stop  offset="0.2107" style="stop-color:#F95F8D"/>
			<stop  offset="0.3034" style="stop-color:#FC6BA0"/>
			<stop  offset="0.3986" style="stop-color:#FE72AB"/>
			<stop  offset="0.5" style="stop-color:#FF74AF"/>
			<stop  offset="1" style="stop-color:#00B0EA"/>
		</linearGradient>
		<path class="st1" d="M329,667.6c0,3.7-0.9,9-2.8,15.9c-2.1,8.8-3.3,14.1-3.8,15.9c-0.7,8.3-2.3,20.4-4.8,36.3
			c-1.2,4.2-4.2,6.2-9,6.2c-2.3,0-6.7-0.5-13.1-1.4c-28.4-4.2-72.3-6.2-131.8-6.2c-16.8,0-42.2,0.5-76.1,1.4
			c-33.9,0.9-59.3,1.4-76.1,1.4c-7.6,0-11.4-3.3-11.4-10c0-25.8,1.4-64.6,4.3-116.4c2.9-51.8,4.3-90.6,4.3-116.4
			c0-26.3-1.4-75.3-4.2-147c-0.5-18.5-1.7-46-3.8-82.7l-0.3-4.8c-0.2-5.3,2.8-8,9-8c16.1,0,40.4,0.5,72.7,1.4
			c32.3,0.9,56.5,1.4,72.7,1.4c15.5,0,38.6-0.5,69.4-1.4c30.8-0.9,53.9-1.4,69.4-1.4c10.8,0,16.7,3.3,17.6,10
			c4.8,30.4,7.3,49.4,7.3,56.7c0,5.3-2.5,8-7.6,8c-19.6,0-49.3-1.1-89.1-3.3c-39.8-2.2-69.7-3.3-89.8-3.3c-18.9,0-30.9,2.5-35.8,7.6
			c-5,5.1-7.4,17.6-7.4,37.7v51.6c0,14.1,0.3,22.3,1,24.6c2.1,7.2,8.1,10.7,18,10.7c2.8,0,6.7-0.1,11.8-0.3c5.3,0,9.2,0,11.8,0
			c45.2,0,85.8-0.8,121.8-2.4c14.1-0.5,30.7-1.6,49.8-3.5c4.8-0.5,7.3,1.6,7.3,6.2c0,7.4-0.9,18.7-2.6,33.9s-2.6,26.6-2.6,34.3
			c0,4.2-3.5,6.2-10.4,6.2c-2.8,0-13-0.8-30.8-2.4c-12.9-1.4-42-2.1-87.2-2.1c-38.1,0-62.2,0.5-72.3,1.4
			c-9.2,0.7-14.5,5.5-15.9,14.5c0.2-1.6,0.3,7.3,0.3,26.6v51.2c0,24,3.7,39,11.1,45c5.8,4.8,20.2,7.3,43.2,7.3l38.1-0.3
			c16.1,0,61.5-2.8,136-8.3l5.2-0.3C326.7,658.5,329,661.3,329,667.6z"/>
		<linearGradient id="SVGID_3_" gradientUnits="userSpaceOnUse" x1="0" y1="494.0632" x2="4099.9956" y2="494.0632">
			<stop  offset="0" style="stop-color:#ED3243"/>
			<stop  offset="3.011498e-02" style="stop-color:#EF3A50"/>
			<stop  offset="0.1194" style="stop-color:#F54F72"/>
			<stop  offset="0.2107" style="stop-color:#F95F8D"/>
			<stop  offset="0.3034" style="stop-color:#FC6BA0"/>
			<stop  offset="0.3986" style="stop-color:#FE72AB"/>
			<stop  offset="0.5" style="stop-color:#FF74AF"/>
			<stop  offset="1" style="stop-color:#00B0EA"/>
		</linearGradient>
		<path class="st2" d="M756.7,734.4c0,1.8-1.8,2.8-5.5,2.8c-4.4,0-11.1-0.3-20.1-1c-9-0.7-15.7-1-20.1-1c-4.8,0-12.1,0.3-21.6,1
			c-9.6,0.7-16.8,1-21.6,1c-5.3,0-9.3-2.9-12.1-8.6c-7.4-15.7-28.4-64.2-63-145.7c-3.5-8.3-11.9-13.4-25.3-15.2
			c-3-0.2-13.5-0.3-31.5-0.3c-31.8,0-50.7,0.5-56.7,1.4c-4.8,0.7-7.3,6.6-7.3,17.6c0,16.1,0.7,40.3,2.2,72.5
			c1.5,32.2,2.2,56.2,2.2,72.1c0,4.8-2.3,7.3-6.9,7.3c-4.6,0-11.6-0.5-20.9-1.6c-9.3-1-16.4-1.6-21.3-1.6c-3.9,0-9.9,0.3-18,1
			c-8.1,0.7-14.1,1-18,1c-5.8,0-8.6-2.6-8.6-8c0-25.6,1.2-64.1,3.6-115.4c2.4-51.3,3.6-89.8,3.6-115.4c0-72.9-2.7-150.6-8-233.2
			l-0.3-5.5c-0.2-4.6,4.6-6.9,14.5-6.9c19.8,0,49.5-0.5,89.1-1.6c39.6-1,69.1-1.6,88.7-1.6c51.2,0,92.3,12.2,123.2,36.7
			c34.1,27,51.2,65.3,51.2,114.9c0,34.1-4.6,61-13.8,80.6c-9.7,20.8-27.7,40.5-54,59.2c-4.4,3-6.6,5.9-6.6,8.6
			c0,3.2,13.8,33.9,41.3,92C742.9,699.8,756.7,730.7,756.7,734.4z M661.9,420.5c0-41.7-12-69.7-36-83.7
			c-17.8-10.4-49.7-15.6-95.8-15.6c-37.4,0-56.4,3-57.1,9c-1.6,12.5-2.4,45.8-2.4,100v66.1c0.7,0.5,2.2,0.9,4.5,1.4
			c4.2,0.5,11,1,20.4,1.7c21.9,1.2,45.6,1.7,70.9,1.7C630,501.2,661.9,474.3,661.9,420.5z"/>
		<linearGradient id="SVGID_4_" gradientUnits="userSpaceOnUse" x1="0" y1="494.0632" x2="4099.9956" y2="494.0632">
			<stop  offset="0" style="stop-color:#ED3243"/>
			<stop  offset="3.011498e-02" style="stop-color:#EF3A50"/>
			<stop  offset="0.1194" style="stop-color:#F54F72"/>
			<stop  offset="0.2107" style="stop-color:#F95F8D"/>
			<stop  offset="0.3034" style="stop-color:#FC6BA0"/>
			<stop  offset="0.3986" style="stop-color:#FE72AB"/>
			<stop  offset="0.5" style="stop-color:#FF74AF"/>
			<stop  offset="1" style="stop-color:#00B0EA"/>
		</linearGradient>
		<path class="st3" d="M1260.8,494.2c0,68.5-21.9,127.4-65.7,176.8c-45.7,51.2-102.4,76.8-170.2,76.8c-68,0-124.8-25.5-170.2-76.5
			c-43.8-49.1-65.7-108.2-65.7-177.1c0-68.3,22.1-127.2,66.4-176.8c45.7-51.4,102.2-77.2,169.5-77.2c67.6,0,124.2,25.7,169.9,77.2
			C1238.8,366.8,1260.8,425.7,1260.8,494.2z M1177.4,493.2c0-45.2-14.1-84.5-42.2-118c-29.5-35.5-66.5-53.3-111.1-53.3
			c-44.1,0-80.7,18-110,54c-27.7,33.7-41.5,73.1-41.5,118.3c0,45,13.8,84.3,41.5,118c29.3,36,66,54,110,54c44.7,0,81.9-18,111.4-54
			C1163.4,578.5,1177.4,538.9,1177.4,493.2z"/>
		<linearGradient id="SVGID_5_" gradientUnits="userSpaceOnUse" x1="0" y1="494.0632" x2="4099.9956" y2="494.0632">
			<stop  offset="0" style="stop-color:#ED3243"/>
			<stop  offset="3.011498e-02" style="stop-color:#EF3A50"/>
			<stop  offset="0.1194" style="stop-color:#F54F72"/>
			<stop  offset="0.2107" style="stop-color:#F95F8D"/>
			<stop  offset="0.3034" style="stop-color:#FC6BA0"/>
			<stop  offset="0.3986" style="stop-color:#FE72AB"/>
			<stop  offset="0.5" style="stop-color:#FF74AF"/>
			<stop  offset="1" style="stop-color:#00B0EA"/>
		</linearGradient>
		<path class="st4" d="M2866.9,728.5c0,5.8-2.9,8.6-8.7,8.6c-4.2,0-10.4-0.3-18.9-1c-8.4-0.7-14.7-1-18.9-1c-4.2,0-10.5,0.3-19,1
			c-8.5,0.7-14.9,1-19,1c-5.8,0-8.7-3.8-8.7-11.4c0-29.3,0.9-73.2,2.8-131.8c1.8-58.6,2.8-102.5,2.8-131.8c0-4.4-0.9-6.6-2.8-6.6
			c-2.1,0-3.7,1.3-4.8,3.8c-11.8,25.1-39.6,92.3-83.4,201.4c-7.2,21-17.4,47.2-30.8,78.5c-1.6,3-9.9,4.5-24.9,4.5
			c-21.7,0-33.7-2-36-5.9c-7.8-18.7-19-44.9-33.6-78.5c-19.1-45.7-48.6-113.7-88.2-204.1c-0.7-1.6-2.2-3.2-4.5-4.8
			c-1.8,1.4-2.8,3.9-2.8,7.6c0,29.8,0.5,74.4,1.6,133.9c1,59.5,1.6,104.1,1.6,133.9c0,7.6-2.9,11.4-8.7,11.4c-3.9,0-9.9-0.3-18-1
			c-8.1-0.7-14.1-1-18-1c-4.2,0-10.3,0.3-18.5,1c-8.2,0.7-14.4,1-18.5,1c-5.8,0-8.6-2.2-8.6-6.6c0-25.6,1.2-63.9,3.6-115
			c2.4-51.1,3.6-89.4,3.6-115c0-26.5-1.2-66.4-3.6-119.5c-2.4-53.2-3.6-93-3.6-119.5c0-4.4,2.6-6.9,8-7.6c31.4-4.2,55-6.2,70.9-6.2
			c2.3,0,5.5,4.7,9.7,14.2c55.8,122.7,103.8,232.3,143.9,328.7c9.5,22.6,15.1,33.9,17,33.9c2.3,0,7.3-9.2,14.9-27.7
			c31.4-74.7,74.8-185.7,130.4-332.8c3.5-9,7.3-13.5,11.4-13.5c7.8,0,19.7,0.5,35.5,1.4c15.8,0.9,27.6,1.4,35.5,1.4
			c5.8,0,8.6,2.8,8.6,8.3c0,26.5-0.9,66.4-2.6,119.5c-1.7,53.2-2.6,93-2.6,119.5c0,25.4,1,63.4,2.9,114.2
			C2865.9,665.4,2866.9,703.3,2866.9,728.5z"/>
		<linearGradient id="SVGID_6_" gradientUnits="userSpaceOnUse" x1="0" y1="494.0632" x2="4099.9956" y2="494.0632">
			<stop  offset="0" style="stop-color:#ED3243"/>
			<stop  offset="3.011498e-02" style="stop-color:#EF3A50"/>
			<stop  offset="0.1194" style="stop-color:#F54F72"/>
			<stop  offset="0.2107" style="stop-color:#F95F8D"/>
			<stop  offset="0.3034" style="stop-color:#FC6BA0"/>
			<stop  offset="0.3986" style="stop-color:#FE72AB"/>
			<stop  offset="0.5" style="stop-color:#FF74AF"/>
			<stop  offset="1" style="stop-color:#00B0EA"/>
		</linearGradient>
		<path class="st5" d="M3368.2,733c0,2.8-2.8,4.2-8.3,4.2c-4.4,0-10.8-0.3-19.2-1c-8.4-0.7-14.8-1-19.2-1c-4.4,0-11,0.3-19.7,1
			c-8.8,0.7-15.3,1-19.7,1c-6.5,0-14.7-17.5-24.7-52.4c-10-34.9-20.2-52.6-30.6-53.1c-8.5-0.5-30.8-0.7-66.8-0.7h-54.7
			c-38.1,0-59.7,0.2-65,0.7c-8.3,0.7-17.1,18.5-26.5,53.3c-9.3,34.8-16.6,52.2-21.6,52.2h-77.8c-4.6,0-6.9-1.6-6.9-4.8
			c0-2.3,1.6-7.5,4.8-15.6l84.8-231.8c7.1-18.7,28.8-72.5,65-161.6c6.5-14.8,15.2-37,26.3-66.8c2.8-8.8,5.8-13.1,9-13.1
			c4.4,0,10.8,0.6,19.4,1.7c8.5,1.2,15,1.7,19.4,1.7c4.2,0,10.4-0.6,18.9-1.9c8.4-1.3,14.6-1.9,18.5-1.9c2.1,0,5,4.3,8.6,12.8
			c5.5,12.9,32.9,82.5,82,208.6C3333.5,641.9,3368.2,731.4,3368.2,733z M3207,542c0-6.7-10.4-36.7-31.1-90
			c-20.1-51.7-34.3-85.6-42.6-101.7c-47.7,121.8-71.6,185.6-71.6,191.3c0,7.8,8.8,12.5,26.3,13.8c0.9,0.2,12.2,0.3,33.9,0.3h35.6
			C3190.5,555.8,3207,551.2,3207,542z"/>
		<linearGradient id="SVGID_7_" gradientUnits="userSpaceOnUse" x1="0" y1="494.0632" x2="4099.9956" y2="494.0632">
			<stop  offset="0" style="stop-color:#ED3243"/>
			<stop  offset="3.011498e-02" style="stop-color:#EF3A50"/>
			<stop  offset="0.1194" style="stop-color:#F54F72"/>
			<stop  offset="0.2107" style="stop-color:#F95F8D"/>
			<stop  offset="0.3034" style="stop-color:#FC6BA0"/>
			<stop  offset="0.3986" style="stop-color:#FE72AB"/>
			<stop  offset="0.5" style="stop-color:#FF74AF"/>
			<stop  offset="1" style="stop-color:#00B0EA"/>
		</linearGradient>
		<path class="st6" d="M3733.6,662c0,32.3-1.7,55.2-5.2,68.9c-1.6,6.7-5.7,10-12.1,10c-17.1,0-42.7-1-76.8-2.9
			c-34.1-2-59.7-2.9-76.8-2.9c-16.1,0-40.3,0.3-72.3,1c-32.1,0.7-56.2,1-72.3,1c-5.8,0-8.7-2.9-8.7-8.6c0-25.1,0.9-63.1,2.6-113.8
			c1.7-50.7,2.6-88.8,2.6-114.2c0-26.8-1.2-66.8-3.6-120.2c-2.4-53.4-3.6-93.5-3.6-120.2c0-5.1,2.9-7.6,8.6-7.6c4.2,0,10.5,0.3,19,1
			c8.5,0.7,15,1,19.4,1c4.2,0,10.6-0.3,19.4-1c8.8-0.7,15.2-1,19.4-1c5.5,0,8.3,2.2,8.3,6.6c0,24.5-0.9,61.2-2.8,110.4
			c-1.8,49.1-2.8,86-2.8,110.7c0,12,0,30.2,0,54.7c-0.2,24.5-0.3,42.7-0.3,54.7c0,51.2,2.1,76.8,6.2,76.8
			c85.1,0,149.3-2.1,192.7-6.2c2.1-0.2,7.4-1,15.9-2.4c6.9-1.4,12.2-2.1,15.9-2.1C3731.2,655.5,3733.6,657.7,3733.6,662z"/>
		<linearGradient id="SVGID_8_" gradientUnits="userSpaceOnUse" x1="0" y1="494.0632" x2="4099.9956" y2="494.0632">
			<stop  offset="0" style="stop-color:#ED3243"/>
			<stop  offset="3.011498e-02" style="stop-color:#EF3A50"/>
			<stop  offset="0.1194" style="stop-color:#F54F72"/>
			<stop  offset="0.2107" style="stop-color:#F95F8D"/>
			<stop  offset="0.3034" style="stop-color:#FC6BA0"/>
			<stop  offset="0.3986" style="stop-color:#FE72AB"/>
			<stop  offset="0.5" style="stop-color:#FF74AF"/>
			<stop  offset="1" style="stop-color:#00B0EA"/>
		</linearGradient>
		<path class="st7" d="M4100,662c0,32.3-1.7,55.2-5.2,68.9c-1.6,6.7-5.7,10-12.1,10c-17.1,0-42.7-1-76.8-2.9
			c-34.1-2-59.7-2.9-76.8-2.9c-16.1,0-40.3,0.3-72.3,1c-32.1,0.7-56.2,1-72.3,1c-5.8,0-8.7-2.9-8.7-8.6c0-25.1,0.9-63.1,2.6-113.8
			c1.7-50.7,2.6-88.8,2.6-114.2c0-26.8-1.2-66.8-3.6-120.2c-2.4-53.4-3.6-93.5-3.6-120.2c0-5.1,2.9-7.6,8.6-7.6c4.2,0,10.5,0.3,19,1
			c8.5,0.7,15,1,19.4,1c4.2,0,10.6-0.3,19.4-1c8.8-0.7,15.2-1,19.4-1c5.5,0,8.3,2.2,8.3,6.6c0,24.5-0.9,61.2-2.8,110.4
			c-1.8,49.1-2.8,86-2.8,110.7c0,12,0,30.2,0,54.7c-0.2,24.5-0.3,42.7-0.3,54.7c0,51.2,2.1,76.8,6.2,76.8
			c85.1,0,149.3-2.1,192.7-6.2c2.1-0.2,7.4-1,15.9-2.4c6.9-1.4,12.2-2.1,15.9-2.1C4097.6,655.5,4100,657.7,4100,662z"/>
	</g>
</g>
</svg>
