<?xml version="1.0" encoding="utf-8"?>
<!-- Generator: Adobe Illustrator 21.1.0, SVG Export Plug-In . SVG Version: 6.00 Build 0)  -->
<svg version="1.1" id="Capa_1" xmlns="http://www.w3.org/2000/svg" xmlns:xlink="http://www.w3.org/1999/xlink" x="0px" y="0px"
	 viewBox="0 0 193.3 193.3" style="enable-background:new 0 0 193.3 193.3;" xml:space="preserve">
<style type="text/css">
	.st0{fill:url(#SVGID_1_);}
</style>
<linearGradient id="SVGID_1_" gradientUnits="userSpaceOnUse" x1="21.496" y1="96.6665" x2="171.837" y2="96.6665">
	<stop  offset="0" style="stop-color:#ED3243"/>
	<stop  offset="0.5" style="stop-color:#FF74AF"/>
	<stop  offset="1" style="stop-color:#00B0EA"/>
</linearGradient>
<path class="st0" d="M169.8,193.3H23.5c-1.1,0-2-0.9-2-2V2c0-1.1,0.9-2,2-2h146.3c1.1,0,2,0.9,2,2v189.3
	C171.8,192.4,170.9,193.3,169.8,193.3z M25.5,189.3h142.3V4H25.5V189.3z M106.1,170.6c-12.1,0-21.9-9.8-21.9-21.9v-36.5
	c0-8.8,5.2-16.5,12.8-19.9c-7.5-3.5-12.8-11.1-12.8-19.9V56.6c0-12.1,9.8-21.9,21.9-21.9c12.1,0,21.9,9.8,21.9,21.9v15.8
	c0,8.8-5.2,16.5-12.8,19.9c7.5,3.5,12.8,11.1,12.8,19.9v36.5C128,160.8,118.2,170.6,106.1,170.6z M106.1,94.2
	c-9.9,0-17.9,8-17.9,17.9v36.5c0,9.9,8,17.9,17.9,17.9s17.9-8,17.9-17.9v-36.5C124,102.3,116,94.2,106.1,94.2z M106.1,38.6
	c-9.9,0-17.9,8-17.9,17.9v15.8c0,9.9,8,17.9,17.9,17.9s17.9-8,17.9-17.9V56.6C124,46.7,116,38.6,106.1,38.6z M61.8,169.7
	c-1.1,0-2-0.9-2-2V41.5L44.3,56.9c-0.8,0.8-2,0.8-2.8,0c-0.8-0.8-0.8-2,0-2.8l18.8-18.8c0.6-0.6,1.4-0.7,2.2-0.4
	c0.7,0.3,1.2,1,1.2,1.8v131C63.8,168.8,62.9,169.7,61.8,169.7z M141.1,46.3c-1.1,0-2-0.9-2-2v-8.8h-8.8c-1.1,0-2-0.9-2-2s0.9-2,2-2
	h8.8v-8.8c0-1.1,0.9-2,2-2s2,0.9,2,2v8.8h8.8c1.1,0,2,0.9,2,2s-0.9,2-2,2h-8.8v8.8C143.1,45.4,142.2,46.3,141.1,46.3z"/>
</svg>
